<svg xmlns="http://www.w3.org/2000/svg" width="24.606" height="21.046" viewBox="0 0 24.606 21.046"><defs><style>.a{fill:#707070;}</style></defs><path class="a" d="M10.826-1.628H23.2a.862.862,0,0,0,.618-.247.846.846,0,0,0,.258-.64.833.833,0,0,0-.258-.629.862.862,0,0,0-.618-.247H11.04a.855.855,0,0,1-.663-.27,1.382,1.382,0,0,1-.326-.708L8.344-16.1a1.722,1.722,0,0,0-.416-.988A1.62,1.62,0,0,0,6.75-17.43H3.066a.854.854,0,0,0-.629.275.906.906,0,0,0-.27.657.875.875,0,0,0,.27.64.862.862,0,0,0,.629.27H6.514L8.187-4.155A3.3,3.3,0,0,0,9-2.308,2.394,2.394,0,0,0,10.826-1.628Zm-1.9-3.841h14.33A2.4,2.4,0,0,0,25.1-6.154a3.406,3.406,0,0,0,.82-1.864l.809-5.458a1.784,1.784,0,0,0,.034-.225q.011-.124.011-.2a.9.9,0,0,0-.286-.685,1.109,1.109,0,0,0-.792-.27H7.985l.022,1.763H24.752l-.708,4.9a1.3,1.3,0,0,1-.3.7.852.852,0,0,1-.663.258L8.906-7.232ZM11.68,3.616A1.744,1.744,0,0,0,12.954,3.1a1.716,1.716,0,0,0,.522-1.269A1.721,1.721,0,0,0,12.954.567,1.734,1.734,0,0,0,11.68.045a1.792,1.792,0,0,0-1.555.876,1.74,1.74,0,0,0-.241.91A1.716,1.716,0,0,0,10.405,3.1,1.744,1.744,0,0,0,11.68,3.616Zm9.883,0A1.73,1.73,0,0,0,22.826,3.1a1.716,1.716,0,0,0,.522-1.269A1.721,1.721,0,0,0,22.826.567,1.721,1.721,0,0,0,21.563.045a1.753,1.753,0,0,0-1.28.522,1.712,1.712,0,0,0-.528,1.263A1.707,1.707,0,0,0,20.282,3.1,1.763,1.763,0,0,0,21.563,3.616Z" transform="translate(-2.167 17.43)"/></svg>