<svg xmlns="http://www.w3.org/2000/svg" width="18.242" height="18.406" viewBox="0 0 18.242 18.406"><defs><style>.a{fill:#707070;}</style></defs><path class="a" d="M9.639-2.851a5.769,5.769,0,0,0,2.3-.461,5.958,5.958,0,0,0,1.9-1.287,6.151,6.151,0,0,0,1.287-1.9,5.678,5.678,0,0,0,.467-2.292,5.739,5.739,0,0,0-.467-2.307,6.071,6.071,0,0,0-1.287-1.9,6.071,6.071,0,0,0-1.9-1.287,5.714,5.714,0,0,0-2.3-.467,5.751,5.751,0,0,0-2.3.467,5.994,5.994,0,0,0-1.9,1.287,6.115,6.115,0,0,0-1.282,1.9,5.739,5.739,0,0,0-.467,2.307A5.678,5.678,0,0,0,4.158-6.5,6.2,6.2,0,0,0,5.44-4.6a5.883,5.883,0,0,0,1.9,1.287A5.806,5.806,0,0,0,9.639-2.851Zm0,1.466a7.172,7.172,0,0,1-2.871-.579A7.524,7.524,0,0,1,4.4-3.563,7.469,7.469,0,0,1,2.81-5.922a7.19,7.19,0,0,1-.574-2.866,7.216,7.216,0,0,1,.574-2.876,7.427,7.427,0,0,1,1.6-2.358,7.6,7.6,0,0,1,2.364-1.6A7.135,7.135,0,0,1,9.639-16.2a7.172,7.172,0,0,1,2.871.579,7.524,7.524,0,0,1,2.364,1.6,7.453,7.453,0,0,1,1.594,2.364,7.227,7.227,0,0,1,.574,2.871,7.19,7.19,0,0,1-.574,2.866,7.469,7.469,0,0,1-1.594,2.358,7.524,7.524,0,0,1-2.364,1.6A7.172,7.172,0,0,1,9.639-1.384ZM19.462,2.2a1.106,1.106,0,0,1-.395-.072.875.875,0,0,1-.333-.226l-5.25-5.24L14.96-4.778,20.19.461a.933.933,0,0,1,.215.333,1.1,1.1,0,0,1-.056.907.932.932,0,0,1-.359.369A1.036,1.036,0,0,1,19.462,2.2Z" transform="translate(-2.235 16.201)"/></svg>