<svg width="380" height="380" viewBox="0 0 380 380" fill="none" xmlns="http://www.w3.org/2000/svg">
<path d="M109.042 291.583C117.623 291.583 124.58 290.374 124.58 288.881C124.58 287.389 117.623 286.179 109.042 286.179C100.461 286.179 93.5044 287.389 93.5044 288.881C93.5044 290.374 100.461 291.583 109.042 291.583Z" fill="#002E55"/>
<path d="M279.37 267.685H206.15C206.505 247.771 222.757 231.737 242.76 231.737C262.763 231.737 279.015 247.771 279.37 267.685Z" fill="url(#paint0_linear_364_26389)"/>
<path d="M304.461 268.234H262.756C262.96 256.891 272.217 247.756 283.61 247.756C295 247.756 304.26 256.891 304.461 268.234Z" fill="url(#paint1_linear_364_26389)"/>
<path d="M124.587 218.151C142.704 218.151 157.39 200.629 157.39 179.015C157.39 157.401 142.704 139.879 124.587 139.879C106.47 139.879 91.7839 157.401 91.7839 179.015C91.7839 200.629 106.47 218.151 124.587 218.151Z" fill="url(#paint2_linear_364_26389)"/>
<path d="M153.457 233.545C160.853 233.545 166.848 227.623 166.848 220.319C166.848 213.014 160.853 207.093 153.457 207.093C146.061 207.093 140.065 213.014 140.065 220.319C140.065 227.623 146.061 233.545 153.457 233.545Z" fill="#D2DC19"/>
<path d="M124.305 173.547L126.54 267.974H122.018V173.575C122.018 172.939 122.532 172.425 123.162 172.425C123.781 172.425 124.291 172.921 124.305 173.547Z" fill="#C8C800"/>
<path d="M152.735 219.819C152.869 220.097 152.756 220.432 152.482 220.572L126.536 233.999L122.828 235.744C122.451 235.924 122.015 235.646 122.015 235.227V234.013C122.015 233.791 122.142 233.591 122.342 233.496L126.536 231.522L151.979 219.545C152.264 219.415 152.598 219.534 152.735 219.819Z" fill="#C8C800"/>
<path d="M105.664 187.611C105.664 187.611 105.664 187.614 105.661 187.614C105.534 187.878 105.636 188.195 105.893 188.335L123.25 197.765V195.64C123.25 195.429 123.127 195.235 122.937 195.144L106.389 187.354C106.115 187.227 105.794 187.343 105.664 187.611Z" fill="#C8C800"/>
<path d="M141.937 197.079C142.265 197.751 141.923 197.086 142.265 197.751L124.588 207.723V205.249L141.937 197.079Z" fill="#C8C800"/>
<path d="M127.955 268.013H97.4068C94.1627 268.013 91.851 264.754 93.0368 261.732C95.6757 255.015 102.22 250.258 109.873 250.258C119.749 250.258 127.779 258.178 127.955 268.013Z" fill="url(#paint3_linear_364_26389)"/>
<path d="M153.457 268.013H117.297C117.473 258.178 125.499 250.258 135.375 250.258C145.252 250.258 153.281 258.178 153.457 268.013Z" fill="url(#paint4_linear_364_26389)"/>
<path d="M109.043 291.351C115.644 291.351 120.995 286 120.995 279.398C120.995 272.797 115.644 267.446 109.043 267.446C102.441 267.446 97.0901 272.797 97.0901 279.398C97.0901 286 102.441 291.351 109.043 291.351Z" fill="#FE7A15"/>
<path d="M242.753 330.984C244.523 330.984 245.958 329.549 245.958 327.778C245.958 326.008 244.523 324.573 242.753 324.573C240.982 324.573 239.547 326.008 239.547 327.778C239.547 329.549 240.982 330.984 242.753 330.984Z" fill="#FF937C"/>
<path d="M219.25 338.675H234.066C239.421 338.675 243.763 334.333 243.763 328.978V322.455H209.552V328.978C209.552 334.333 213.894 338.675 219.25 338.675Z" fill="#FF937C"/>
<path d="M154.896 281.576L163.601 281.168H163.608L180.725 280.359L180.201 190.292L153.256 191.562L153.696 266.366C153.696 266.366 153.7 266.376 153.696 266.394C153.693 266.405 153.696 266.422 153.693 266.44L153.742 274.43C153.738 274.437 153.745 274.441 153.745 274.441C153.907 276.848 154.242 279.413 154.892 281.566L154.896 281.576Z" fill="#F09982"/>
<path d="M185.827 217.867L153.418 219.397L152.911 195.542C152.816 179.522 167.414 165.842 185.517 164.987L185.827 217.867Z" fill="#F09982"/>
<path d="M169.955 169.202C169.955 169.202 172.348 186.573 171.137 192.002C169.923 197.431 163.864 210.228 165.898 220.893C167.932 231.557 176.063 236.254 176.063 236.254L161.627 239.02L159.107 205.214L158.101 189.701L165.606 173.706L169.955 169.202Z" fill="#F09982"/>
<path d="M256.764 277.692L248.059 277.284H248.052L230.934 276.475L231.459 186.408L258.403 187.678L257.967 262.481C257.967 262.481 257.964 262.492 257.967 262.51C257.971 262.52 257.967 262.538 257.971 262.555L257.921 270.546C257.925 270.553 257.918 270.556 257.918 270.556C257.756 272.963 257.422 275.528 256.771 277.681L256.764 277.692Z" fill="#F09982"/>
<path d="M225.833 213.982L258.242 215.513L258.748 191.657C258.843 175.637 244.245 161.957 226.142 161.102L225.833 213.982Z" fill="#F09982"/>
<path d="M241.701 165.317C241.701 165.317 239.309 182.688 240.519 188.117C241.733 193.546 247.792 206.343 245.758 217.008C243.724 227.673 235.593 232.37 235.593 232.37L250.029 235.135L252.549 201.329L253.555 185.816L246.05 169.821L241.701 165.317Z" fill="#F09982"/>
<path d="M251.609 232.201L178.287 236.698L167.858 229.323L169.948 211.122C170.838 203.374 170.557 195.535 169.118 187.871L166.349 173.125C165.877 170.62 167.07 168.094 169.304 166.866L191.077 154.871H217.722L235.723 162.714C239.319 164.28 242.289 163.126 241.363 171.83L241.138 187.108C241.029 194.518 242.102 201.9 244.322 208.968L251.609 232.201Z" fill="#0191B4"/>
<path d="M204.109 98.304C212.103 98.304 218.584 91.8232 218.584 83.8288C218.584 75.8344 212.103 69.3536 204.109 69.3536C196.115 69.3536 189.634 75.8344 189.634 83.8288C189.634 91.8232 196.115 98.304 204.109 98.304Z" fill="#002E55"/>
<path d="M204.644 111.787C213.079 111.787 219.918 104.949 219.918 96.5131C219.918 88.0775 213.079 81.2392 204.644 81.2392C196.208 81.2392 189.37 88.0775 189.37 96.5131C189.37 104.949 196.208 111.787 204.644 111.787Z" fill="#00BDCC"/>
<path d="M166.954 331.033C168.724 331.033 170.159 329.598 170.159 327.827C170.159 326.057 168.724 324.622 166.954 324.622C165.183 324.622 163.748 326.057 163.748 327.827C163.748 329.598 165.183 331.033 166.954 331.033Z" fill="#FF937C"/>
<path d="M222.965 312.701H188.505C176.098 312.701 165.948 302.55 165.948 290.144V247.049C165.948 244.727 167.848 242.827 170.17 242.827H241.3C243.622 242.827 245.522 244.727 245.522 247.049V290.144C245.522 302.55 235.371 312.701 222.965 312.701Z" fill="#FDD700"/>
<path d="M244.822 264.867H166.64V272.794H244.822V264.867Z" fill="#FF937C"/>
<path d="M78.2204 305.337C86.8017 305.337 93.7582 304.127 93.7582 302.635C93.7582 301.143 86.8017 299.933 78.2204 299.933C69.6391 299.933 62.6826 301.143 62.6826 302.635C62.6826 304.127 69.6391 305.337 78.2204 305.337Z" fill="#002E55"/>
<path d="M70.6875 302.878H65.6208C64.6356 302.878 63.8369 302.079 63.8369 301.094V288.075C63.8369 287.09 64.6356 286.291 65.6208 286.291H70.691C71.6762 286.291 72.4749 287.09 72.4749 288.075V301.094C72.4714 302.079 71.6727 302.878 70.6875 302.878Z" fill="#00BDCC"/>
<path d="M89.4898 302.878H85.0318C83.8777 302.878 82.9453 301.942 82.9453 300.791V288.381C82.9453 287.227 83.8812 286.295 85.0318 286.295H89.4898C90.6438 286.295 91.5762 287.231 91.5762 288.381V300.791C91.5762 301.945 90.6438 302.878 89.4898 302.878Z" fill="#00BDCC"/>
<path d="M91.5765 291.836H69.6843V297.339H91.5765V291.836Z" fill="#00BDCC"/>
<path d="M72.4709 291.836V297.336H73.7693L72.4709 291.836Z" fill="#0093B7"/>
<path d="M111.08 312.402C119.661 312.402 126.618 311.192 126.618 309.7C126.618 308.208 119.661 306.998 111.08 306.998C102.498 306.998 95.542 308.208 95.542 309.7C95.542 311.192 102.498 312.402 111.08 312.402Z" fill="#002E55"/>
<path d="M300.292 309.872C309.934 309.872 317.75 308.513 317.75 306.836C317.75 305.159 309.934 303.799 300.292 303.799C290.649 303.799 282.833 305.159 282.833 306.836C282.833 308.513 290.649 309.872 300.292 309.872Z" fill="#002E55"/>
<path d="M103.55 309.939H98.4797C97.4945 309.939 96.6958 309.14 96.6958 308.155V295.137C96.6958 294.151 97.4945 293.353 98.4797 293.353H103.55C104.535 293.353 105.334 294.151 105.334 295.137V308.155C105.33 309.144 104.532 309.939 103.55 309.939Z" fill="#00BDCC"/>
<path d="M122.35 309.939H117.892C116.738 309.939 115.805 309.003 115.805 307.853V295.443C115.805 294.289 116.741 293.356 117.892 293.356H122.35C123.504 293.356 124.436 294.292 124.436 295.443V307.853C124.44 309.007 123.504 309.939 122.35 309.939Z" fill="#00BDCC"/>
<path d="M124.436 298.898H102.544V304.401H124.436V298.898Z" fill="#00BDCC"/>
<path d="M105.33 298.898V304.398H106.629L105.33 298.898Z" fill="#0093B7"/>
<path d="M217.723 141.385V163.661C217.723 171.018 211.759 176.982 204.398 176.982C197.041 176.982 191.077 171.018 191.077 163.661V141.385H217.723Z" fill="#F09982"/>
<path d="M205.056 142.486C218.93 142.486 230.178 129.643 230.178 113.799C230.178 97.9563 218.93 85.1129 205.056 85.1129C191.181 85.1129 179.934 97.9563 179.934 113.799C179.934 129.643 191.181 142.486 205.056 142.486Z" fill="#002E55"/>
<path d="M193.673 88.5822C193.673 88.5822 178.878 96.1892 179.005 112.547C179.131 128.904 188.209 129.897 188.209 129.897" stroke="#002E55" stroke-width="1.03542" stroke-miterlimit="10"/>
<path d="M190.94 123.588C190.94 128.247 187.858 132.025 184.058 132.025C180.258 132.025 177.175 128.25 177.175 123.588C177.175 118.929 180.258 115.154 184.058 115.154C187.858 115.151 190.94 118.929 190.94 123.588Z" fill="#F09982"/>
<path d="M232.715 123.296C232.715 127.955 229.632 131.733 225.832 131.733C222.032 131.733 218.95 127.958 218.95 123.296C218.95 118.637 222.032 114.862 225.832 114.862C229.632 114.862 232.715 118.637 232.715 123.296Z" fill="#F09982"/>
<path d="M217.723 148.746C204.11 155.304 194.891 147.76 191.077 144.087V141.385H217.723V146.466" fill="#002E55"/>
<path d="M205.073 148.745C217.306 148.745 227.222 137.049 227.222 122.62C227.222 108.192 217.306 96.4954 205.073 96.4954C192.841 96.4954 182.924 108.192 182.924 122.62C182.924 137.049 192.841 148.745 205.073 148.745Z" fill="#F09982"/>
<path d="M199.387 129.38L212.55 129.285C212.55 129.285 209.999 135.294 205.489 135.006C201.629 134.763 199.387 129.38 199.387 129.38Z" fill="white"/>
<path d="M205.059 123.838L206.203 127.068L204.444 127.321C204.12 127.367 203.863 127.05 203.979 126.741L205.059 123.838Z" fill="#D75A4E"/>
<path d="M214.063 116.903C215.119 117.29 213.008 114.862 211.706 114.862C210.404 114.862 209.348 115.777 209.348 116.903C209.345 116.903 211.526 115.97 214.063 116.903Z" fill="black"/>
<path d="M200.872 116.903C201.928 117.29 199.817 114.862 198.515 114.862C197.213 114.862 196.157 115.777 196.157 116.903C196.154 116.903 198.332 115.97 200.872 116.903Z" fill="black"/>
<path d="M198.409 122.533C198.409 123.866 198.832 124.95 199.352 124.95C199.873 124.95 200.295 123.866 200.295 122.533C200.295 121.199 199.873 120.115 199.352 120.115C198.832 120.115 198.409 121.196 198.409 122.533Z" fill="black"/>
<path d="M209.999 122.62C209.999 123.954 210.421 125.037 210.942 125.037C211.463 125.037 211.885 123.954 211.885 122.62C211.885 121.287 211.463 120.203 210.942 120.203C210.421 120.203 209.999 121.287 209.999 122.62Z" fill="black"/>
<path d="M192.259 133.767C194.515 133.767 196.344 131.935 196.344 129.675C196.344 127.415 194.515 125.583 192.259 125.583C190.003 125.583 188.174 127.415 188.174 129.675C188.174 131.935 190.003 133.767 192.259 133.767Z" fill="#FD7859"/>
<path d="M218.584 133.767C220.84 133.767 222.669 131.935 222.669 129.675C222.669 127.415 220.84 125.583 218.584 125.583C216.328 125.583 214.499 127.415 214.499 129.675C214.499 131.935 216.328 133.767 218.584 133.767Z" fill="#FD7859"/>
<path d="M200.087 90.5559C200.087 90.5559 200.598 109.384 186.573 115.893C172.548 122.402 188.723 97.7971 188.723 97.7971L200.087 90.5559Z" fill="#002E55"/>
<path d="M202.557 94.3878C202.557 94.3878 208.303 112.322 223.69 113.803C239.076 115.284 215.674 97.4454 215.674 97.4454L202.557 94.3878Z" fill="#002E55"/>
<path d="M203.662 94.8769C203.81 95.7389 204.039 96.6397 204.296 97.5052C204.556 98.3778 204.855 99.2399 205.197 100.088C205.876 101.784 206.706 103.423 207.695 104.964C208.687 106.506 209.837 107.948 211.153 109.236C212.462 110.531 213.951 111.643 215.548 112.579C213.912 111.72 212.357 110.675 210.974 109.429C209.581 108.194 208.342 106.784 207.258 105.26C206.175 103.737 205.249 102.1 204.468 100.397C204.078 99.546 203.729 98.6734 203.42 97.7867C203.11 96.893 202.836 96.0099 202.625 95.0563L203.662 94.8769Z" fill="#002E55"/>
<path d="M199.419 95.4752C199.588 96.4392 199.672 97.3576 199.725 98.3041C199.774 99.2435 199.785 100.179 199.75 101.119C199.679 102.991 199.444 104.856 199.021 106.678C198.599 108.497 197.991 110.274 197.174 111.949C196.368 113.627 195.334 115.186 194.145 116.604C195.264 115.13 196.217 113.536 196.931 111.84C197.66 110.151 198.173 108.374 198.501 106.573C198.828 104.771 198.969 102.938 198.955 101.112C198.944 100.197 198.895 99.2857 198.803 98.3814C198.712 97.4807 198.578 96.5624 198.388 95.7109L199.419 95.4752Z" fill="#002E55"/>
<path d="M190.458 338.721H175.641C170.286 338.721 165.944 334.379 165.944 329.024V322.501H200.155V329.024C200.155 334.379 195.813 338.721 190.458 338.721Z" fill="#FF937C"/>
<path d="M263.393 240.107V320.819C263.393 324.414 260.451 327.359 256.852 327.359H152.155C148.559 327.359 145.614 324.418 145.614 320.819V240.107C145.614 236.511 148.555 233.566 152.155 233.566H256.852C260.448 233.57 263.393 236.511 263.393 240.107Z" fill="#F8D90F"/>
<path d="M182.041 330.561C184.151 330.561 185.862 328.851 185.862 326.74C185.862 324.63 184.151 322.919 182.041 322.919C179.931 322.919 178.22 324.63 178.22 326.74C178.22 328.851 179.931 330.561 182.041 330.561Z" fill="#FF937C"/>
<path d="M174.635 330.561C176.405 330.561 177.84 329.126 177.84 327.356C177.84 325.586 176.405 324.151 174.635 324.151C172.864 324.151 171.429 325.586 171.429 327.356C171.429 329.126 172.864 330.561 174.635 330.561Z" fill="#FF937C"/>
<path d="M189.444 330.561C191.214 330.561 192.649 329.126 192.649 327.356C192.649 325.586 191.214 324.151 189.444 324.151C187.674 324.151 186.239 325.586 186.239 327.356C186.239 329.126 187.674 330.561 189.444 330.561Z" fill="#FF937C"/>
<path d="M196.105 330.565C197.616 330.565 198.842 329.339 198.842 327.827C198.842 326.315 197.616 325.09 196.105 325.09C194.593 325.09 193.367 326.315 193.367 327.827C193.367 329.339 194.593 330.565 196.105 330.565Z" fill="#FF937C"/>
<path d="M227.666 330.512C229.776 330.512 231.487 328.801 231.487 326.691C231.487 324.58 229.776 322.87 227.666 322.87C225.556 322.87 223.845 324.58 223.845 326.691C223.845 328.801 225.556 330.512 227.666 330.512Z" fill="#FF937C"/>
<path d="M235.072 330.512C236.843 330.512 238.278 329.077 238.278 327.307C238.278 325.537 236.843 324.101 235.072 324.101C233.302 324.101 231.867 325.537 231.867 327.307C231.867 329.077 233.302 330.512 235.072 330.512Z" fill="#FF937C"/>
<path d="M220.26 330.512C222.03 330.512 223.465 329.077 223.465 327.307C223.465 325.537 222.03 324.101 220.26 324.101C218.489 324.101 217.054 325.537 217.054 327.307C217.054 329.077 218.489 330.512 220.26 330.512Z" fill="#FF937C"/>
<path d="M213.602 330.516C215.114 330.516 216.339 329.29 216.339 327.778C216.339 326.266 215.114 325.041 213.602 325.041C212.09 325.041 210.865 326.266 210.865 327.778C210.865 329.29 212.09 330.516 213.602 330.516Z" fill="#FF937C"/>
<path d="M226.983 112.554C226.983 113.648 226.906 114.725 226.758 115.777C225.192 104.669 215.65 96.1225 204.109 96.1225C192.565 96.1225 183.023 104.669 181.457 115.777C181.309 114.725 181.232 113.648 181.232 112.554C181.232 99.9225 191.471 89.6801 204.109 89.6801C216.744 89.6836 226.983 99.9225 226.983 112.554Z" fill="#00BDCC"/>
<path d="M263.393 240.107V242.746C263.062 242.824 262.717 242.862 262.362 242.862H147.549C146.856 242.862 146.201 242.715 145.614 242.447V240.111C145.614 236.515 148.555 233.57 152.155 233.57H256.852C260.448 233.57 263.393 236.511 263.393 240.107Z" fill="#002E55"/>
<path d="M209.549 242.827H199.454V327.162H209.549V242.827Z" fill="#FE7A15"/>
<path d="M166.954 226.631C166.954 217.114 177.137 211.065 185.493 215.615L205.735 226.631H166.954Z" stroke="#FE7A15" stroke-width="7.24796" stroke-miterlimit="10"/>
<path d="M247.422 226.631C247.422 217.114 237.24 211.065 228.883 215.615L208.641 226.631H247.422Z" stroke="#FE7A15" stroke-width="7.24796" stroke-miterlimit="10"/>
<path d="M264.026 240.508H145.888C144.217 240.508 142.859 239.154 142.859 237.479V229.661C142.859 227.989 144.214 226.631 145.888 226.631H264.026C265.697 226.631 267.056 227.986 267.056 229.661V237.479C267.056 239.15 265.697 240.508 264.026 240.508Z" fill="#FE7A15"/>
<path d="M263.393 275.739H145.614V285.19H263.393V275.739Z" fill="#FE7A15"/>
<path d="M314.911 284.064V305.08C314.911 306.016 314.144 306.783 313.208 306.783H285.947C285.011 306.783 284.244 306.016 284.244 305.08V284.064C284.244 283.128 285.011 282.361 285.947 282.361H313.208C314.148 282.361 314.911 283.128 314.911 284.064Z" fill="#00BDCC"/>
<path d="M300.893 282.361H298.265V306.73H300.893V282.361Z" fill="#FDD700"/>
<path d="M314.911 293.343H284.244V295.806H314.911V293.343Z" fill="#FDD700"/>
<path d="M356.665 209.186H286.759C285.021 209.186 283.61 207.775 283.61 206.037V181.615C283.61 179.877 285.021 178.466 286.759 178.466H356.665C358.403 178.466 359.814 179.877 359.814 181.615V206.037C359.814 207.775 358.403 209.186 356.665 209.186Z" fill="#F8D90F"/>
<path d="M356.665 211.336H286.759C285.021 211.336 283.61 209.925 283.61 208.187V183.765C283.61 182.027 285.021 180.616 286.759 180.616H356.665C358.403 180.616 359.814 182.027 359.814 183.765V208.187C359.814 209.925 358.403 211.336 356.665 211.336Z" fill="#0191B4"/>
<path d="M299.883 196.298C299.883 195.665 299.999 195.074 300.235 194.528C300.467 193.983 300.794 193.504 301.209 193.096C301.624 192.688 302.121 192.371 302.698 192.139C303.275 191.91 303.912 191.794 304.605 191.794C305.291 191.794 305.924 191.91 306.505 192.139C307.085 192.368 307.585 192.688 308.004 193.096C308.422 193.504 308.749 193.979 308.982 194.528C309.214 195.074 309.334 195.665 309.334 196.298C309.334 196.931 309.217 197.522 308.982 198.068C308.746 198.613 308.422 199.092 308.004 199.5C307.585 199.908 307.085 200.225 306.505 200.457C305.924 200.686 305.291 200.802 304.605 200.802C303.912 200.802 303.275 200.686 302.698 200.457C302.121 200.228 301.624 199.908 301.209 199.5C300.794 199.092 300.47 198.617 300.235 198.068C300.002 197.522 299.883 196.931 299.883 196.298ZM302.205 196.298C302.205 196.636 302.268 196.949 302.399 197.237C302.525 197.526 302.701 197.772 302.919 197.983C303.137 198.194 303.394 198.36 303.683 198.476C303.975 198.592 304.281 198.652 304.605 198.652C304.928 198.652 305.234 198.592 305.527 198.476C305.819 198.36 306.072 198.194 306.297 197.983C306.519 197.772 306.695 197.522 306.825 197.237C306.955 196.952 307.018 196.639 307.018 196.298C307.018 195.957 306.955 195.647 306.825 195.359C306.698 195.074 306.522 194.824 306.297 194.613C306.075 194.401 305.819 194.236 305.527 194.12C305.234 194.004 304.928 193.944 304.605 193.944C304.281 193.944 303.971 194.004 303.683 194.12C303.391 194.236 303.137 194.401 302.919 194.613C302.701 194.824 302.529 195.074 302.399 195.359C302.268 195.644 302.205 195.957 302.205 196.298Z" fill="white"/>
<path d="M315.625 193.909H312.954V195.334H315.385V197.213H312.954V200.563H310.738V192.03H315.625V193.909Z" fill="white"/>
<path d="M321.835 193.909H319.164V195.334H321.596V197.213H319.164V200.563H316.948V192.03H321.835V193.909Z" fill="white"/>
<path d="M328.013 193.909H325.378V195.334H327.869V197.213H325.378V198.684H328.013V200.563H323.157V192.03H328.013V193.909Z" fill="white"/>
<path d="M336.704 200.563H333.942L331.828 197.28V200.563H329.611V192.03H333.063C333.538 192.03 333.953 192.101 334.308 192.238C334.663 192.379 334.956 192.569 335.184 192.808C335.413 193.051 335.589 193.329 335.705 193.645C335.821 193.962 335.881 194.303 335.881 194.662C335.881 195.309 335.723 195.837 335.413 196.242C335.1 196.646 334.639 196.917 334.027 197.062L336.704 200.563ZM331.828 195.844H332.246C332.683 195.844 333.02 195.753 333.253 195.573C333.485 195.394 333.604 195.134 333.604 194.792C333.604 194.451 333.488 194.194 333.253 194.011C333.017 193.828 332.683 193.74 332.246 193.74H331.828V195.844Z" fill="white"/>
<path d="M342.316 194.215C342.073 194.018 341.834 193.874 341.591 193.779C341.349 193.684 341.116 193.638 340.891 193.638C340.603 193.638 340.371 193.705 340.191 193.842C340.012 193.979 339.92 194.155 339.92 194.373C339.92 194.525 339.966 194.648 340.057 194.746C340.149 194.845 340.265 194.929 340.413 195C340.561 195.07 340.726 195.133 340.912 195.186C341.099 195.239 341.278 195.295 341.461 195.355C342.186 195.598 342.714 195.918 343.052 196.323C343.386 196.727 343.555 197.251 343.555 197.902C343.555 198.339 343.481 198.736 343.333 199.092C343.185 199.447 342.971 199.75 342.689 200.003C342.408 200.256 342.059 200.453 341.648 200.591C341.236 200.731 340.772 200.802 340.251 200.802C339.171 200.802 338.171 200.481 337.253 199.841L338.203 198.054C338.534 198.349 338.865 198.567 339.188 198.712C339.512 198.856 339.832 198.926 340.149 198.926C340.511 198.926 340.782 198.842 340.958 198.676C341.134 198.511 341.226 198.321 341.226 198.11C341.226 197.983 341.204 197.871 341.159 197.776C341.113 197.681 341.039 197.596 340.933 197.515C340.828 197.438 340.691 197.364 340.522 197.294C340.353 197.223 340.145 197.149 339.906 197.069C339.618 196.977 339.34 196.879 339.062 196.769C338.784 196.66 338.541 196.516 338.326 196.333C338.112 196.15 337.939 195.925 337.806 195.647C337.672 195.373 337.609 195.024 337.609 194.599C337.609 194.176 337.679 193.793 337.816 193.451C337.957 193.107 338.15 192.815 338.404 192.568C338.657 192.322 338.967 192.132 339.333 191.998C339.699 191.861 340.107 191.794 340.561 191.794C340.983 191.794 341.423 191.854 341.883 191.97C342.344 192.086 342.784 192.259 343.206 192.484L342.316 194.215Z" fill="white"/>
<path d="M308.12 162.105L308.936 163.759C309.112 164.114 309.45 164.361 309.844 164.417L311.67 164.681C312.659 164.825 313.053 166.035 312.339 166.732L311.019 168.02C310.734 168.298 310.608 168.695 310.675 169.086L310.988 170.905C311.157 171.887 310.126 172.636 309.243 172.175L307.61 171.317C307.258 171.134 306.839 171.134 306.491 171.317L304.858 172.175C303.975 172.64 302.944 171.89 303.113 170.905L303.426 169.086C303.493 168.695 303.363 168.298 303.082 168.02L301.762 166.732C301.048 166.035 301.442 164.821 302.431 164.681L304.257 164.417C304.647 164.361 304.989 164.114 305.165 163.759L305.981 162.105C306.403 161.211 307.677 161.211 308.12 162.105Z" fill="#F8D90F"/>
<path d="M322.698 161.827L323.514 163.481C323.69 163.836 324.027 164.082 324.422 164.139L326.248 164.403C327.236 164.547 327.63 165.757 326.916 166.454L325.597 167.742C325.312 168.02 325.185 168.417 325.252 168.808L325.565 170.627C325.734 171.609 324.703 172.358 323.82 171.897L322.187 171.039C321.835 170.856 321.417 170.856 321.068 171.039L319.436 171.897C318.553 172.362 317.522 171.612 317.691 170.627L318.004 168.808C318.071 168.417 317.94 168.02 317.659 167.742L316.34 166.454C315.625 165.757 316.019 164.543 317.008 164.403L318.834 164.139C319.225 164.082 319.566 163.836 319.742 163.481L320.558 161.827C320.98 160.933 322.254 160.933 322.698 161.827Z" fill="#F8D90F"/>
<path d="M337.461 161.827L338.278 163.481C338.454 163.836 338.791 164.082 339.185 164.139L341.012 164.403C342 164.547 342.394 165.757 341.68 166.454L340.361 167.742C340.076 168.02 339.949 168.417 340.016 168.808L340.329 170.627C340.498 171.609 339.467 172.358 338.584 171.897L336.951 171.039C336.599 170.856 336.181 170.856 335.832 171.039L334.2 171.897C333.317 172.362 332.286 171.612 332.455 170.627L332.768 168.808C332.835 168.417 332.704 168.02 332.423 167.742L331.103 166.454C330.389 165.757 330.783 164.543 331.772 164.403L333.598 164.139C333.989 164.082 334.33 163.836 334.506 163.481L335.322 161.827C335.744 160.933 337.022 160.933 337.461 161.827Z" fill="#F8D90F"/>
<path d="M118.612 157.081H48.7064C46.9683 157.081 45.5574 155.67 45.5574 153.931V129.509C45.5574 127.771 46.9683 126.36 48.7064 126.36H118.612C120.351 126.36 121.761 127.771 121.761 129.509V153.931C121.765 155.67 120.354 157.081 118.612 157.081Z" fill="#F8D90F"/>
<path d="M118.612 159.231H48.7064C46.9683 159.231 45.5574 157.82 45.5574 156.082V131.66C45.5574 129.921 46.9683 128.511 48.7064 128.511H118.612C120.351 128.511 121.761 129.921 121.761 131.66V156.082C121.765 157.82 120.354 159.231 118.612 159.231Z" fill="#0191B4"/>
<path d="M118.612 159.231H48.7064C46.9683 159.231 45.5574 157.82 45.5574 156.082V131.66C45.5574 129.921 46.9683 128.511 48.7064 128.511H118.612C120.351 128.511 121.761 129.921 121.761 131.66V156.082C121.765 157.82 120.354 159.231 118.612 159.231Z" stroke="black"/>
<path d="M66.2711 148.457H64.0544V139.925H67.5835C68.5406 139.925 69.2759 140.175 69.7826 140.671C70.2893 141.167 70.5461 141.871 70.5461 142.775C70.5461 143.679 70.2928 144.383 69.7826 144.879C69.2724 145.375 68.5406 145.625 67.5835 145.625H66.2711V148.457ZM66.2711 143.841H67.0065C67.8228 143.841 68.2274 143.486 68.2274 142.778C68.2274 142.071 67.8193 141.716 67.0065 141.716H66.2711V143.841Z" fill="white"/>
<path d="M78.8184 148.457H76.0564L73.9418 145.174V148.457H71.7251V139.925H75.1768C75.6518 139.925 76.067 139.995 76.4223 140.136C76.7777 140.277 77.0697 140.467 77.2984 140.706C77.5271 140.949 77.7031 141.227 77.8192 141.543C77.9353 141.86 77.9951 142.201 77.9951 142.56C77.9951 143.208 77.8403 143.735 77.5271 144.14C77.214 144.545 76.7531 144.816 76.1408 144.96L78.8184 148.457ZM73.9418 143.739H74.3605C74.7968 143.739 75.1345 143.647 75.3668 143.468C75.599 143.288 75.7186 143.028 75.7186 142.687C75.7186 142.349 75.6025 142.089 75.3668 141.906C75.131 141.723 74.7968 141.635 74.3605 141.635H73.9418V143.739Z" fill="white"/>
<path d="M81.9638 139.925V148.457H79.7471V139.925H81.9638Z" fill="white"/>
<path d="M89.8943 142.778C89.3806 142.152 88.7473 141.839 87.9943 141.839C87.6635 141.839 87.3539 141.898 87.0724 142.018C86.791 142.138 86.5447 142.303 86.3441 142.511C86.14 142.718 85.9817 142.964 85.8621 143.253C85.746 143.538 85.6861 143.848 85.6861 144.182C85.6861 144.52 85.746 144.833 85.8621 145.121C85.9782 145.406 86.14 145.656 86.3476 145.867C86.5552 146.078 86.798 146.244 87.076 146.367C87.3539 146.486 87.6565 146.546 87.9802 146.546C88.691 146.546 89.3278 146.244 89.8943 145.642V148.267L89.6691 148.348C89.3313 148.467 89.0111 148.559 88.7191 148.615C88.4235 148.671 88.135 148.7 87.8465 148.7C87.2589 148.7 86.6924 148.587 86.1541 148.365C85.6158 148.144 85.1408 147.831 84.7291 147.426C84.3174 147.021 83.9867 146.543 83.7404 145.99C83.4941 145.438 83.3674 144.829 83.3674 144.175C83.3674 143.52 83.4906 142.919 83.7334 142.37C83.9797 141.824 84.3069 141.353 84.7185 140.955C85.1302 140.558 85.6052 140.252 86.1506 140.026C86.6924 139.805 87.2624 139.692 87.8606 139.692C88.1984 139.692 88.5326 139.727 88.8634 139.801C89.1906 139.872 89.5354 139.984 89.8978 140.136V142.778H89.8943Z" fill="white"/>
<path d="M96.1541 141.804H93.5188V143.229H96.0064V145.108H93.5188V146.578H96.1541V148.457H91.2986V139.925H96.1541V141.804Z" fill="white"/>
<path d="M102.431 142.11C102.189 141.913 101.949 141.768 101.706 141.673C101.464 141.578 101.231 141.533 101.006 141.533C100.721 141.533 100.486 141.599 100.306 141.737C100.127 141.874 100.035 142.05 100.035 142.268C100.035 142.419 100.081 142.542 100.172 142.641C100.264 142.739 100.384 142.824 100.528 142.894C100.676 142.965 100.841 143.028 101.027 143.081C101.21 143.133 101.393 143.19 101.576 143.25C102.301 143.492 102.829 143.813 103.167 144.217C103.501 144.622 103.67 145.146 103.67 145.797C103.67 146.233 103.596 146.631 103.448 146.986C103.3 147.342 103.086 147.644 102.804 147.898C102.523 148.151 102.174 148.348 101.763 148.485C101.351 148.626 100.887 148.693 100.366 148.693C99.2858 148.693 98.2865 148.373 97.3682 147.732L98.3182 145.945C98.6489 146.24 98.9796 146.458 99.3034 146.603C99.6271 146.747 99.9472 146.817 100.264 146.817C100.626 146.817 100.897 146.733 101.073 146.568C101.249 146.402 101.341 146.212 101.341 146.001C101.341 145.874 101.319 145.762 101.274 145.667C101.228 145.572 101.154 145.487 101.049 145.406C100.943 145.325 100.806 145.255 100.637 145.185C100.468 145.114 100.26 145.04 100.021 144.96C99.7361 144.868 99.4546 144.77 99.1767 144.66C98.9022 144.551 98.6559 144.407 98.4413 144.224C98.2267 144.045 98.0543 143.816 97.9206 143.538C97.7869 143.264 97.7235 142.915 97.7235 142.493C97.7235 142.071 97.7939 141.687 97.9346 141.346C98.0754 141.001 98.2689 140.709 98.5222 140.463C98.7756 140.217 99.0852 140.027 99.4511 139.893C99.817 139.756 100.225 139.689 100.679 139.689C101.101 139.689 101.541 139.749 102.002 139.865C102.463 139.981 102.903 140.153 103.325 140.378L102.431 142.11Z" fill="white"/>
<path d="M70.0683 110L70.8846 111.654C71.0606 112.009 71.3983 112.255 71.7924 112.312L73.6185 112.575C74.6072 112.72 75.0013 113.93 74.2871 114.627L72.9676 115.914C72.6826 116.192 72.5559 116.59 72.6228 116.981L72.9359 118.8C73.1048 119.781 72.0739 120.531 71.1908 120.07L69.5582 119.211C69.2063 119.028 68.7876 119.028 68.4393 119.211L66.8067 120.07C65.9235 120.534 64.8926 119.785 65.0615 118.8L65.3746 116.981C65.4415 116.59 65.3113 116.192 65.0298 115.914L63.7104 114.627C62.9961 113.93 63.3902 112.716 64.3789 112.575L66.205 112.312C66.5956 112.255 66.9369 112.009 67.1128 111.654L67.9291 110C68.3513 109.106 69.6285 109.106 70.0683 110Z" fill="#F8D90F"/>
<path d="M84.6457 109.722L85.462 111.376C85.638 111.731 85.9757 111.977 86.3698 112.033L88.1959 112.297C89.1846 112.442 89.5787 113.652 88.8644 114.349L87.545 115.636C87.26 115.914 87.1333 116.312 87.2002 116.703L87.5133 118.522C87.6822 119.503 86.6513 120.253 85.7681 119.792L84.1356 118.933C83.7837 118.75 83.365 118.75 83.0167 118.933L81.3841 119.792C80.5009 120.256 79.47 119.507 79.6389 118.522L79.952 116.703C80.0189 116.312 79.8887 115.914 79.6072 115.636L78.2878 114.349C77.5735 113.652 77.9676 112.438 78.9563 112.297L80.7824 112.033C81.173 111.977 81.5143 111.731 81.6902 111.376L82.5065 109.722C82.9287 108.828 84.2059 108.828 84.6457 109.722Z" fill="#F8D90F"/>
<path d="M99.4126 109.722L100.229 111.376C100.405 111.731 100.743 111.977 101.137 112.033L102.963 112.297C103.951 112.442 104.346 113.652 103.631 114.349L102.312 115.636C102.027 115.914 101.9 116.312 101.967 116.703L102.28 118.522C102.449 119.503 101.418 120.253 100.535 119.792L98.9024 118.933C98.5505 118.75 98.1318 118.75 97.7835 118.933L96.1509 119.792C95.2678 120.256 94.2368 119.507 94.4057 118.522L94.7189 116.703C94.7857 116.312 94.6556 115.914 94.3741 115.636L93.0546 114.349C92.3404 113.652 92.7344 112.438 93.7231 112.297L95.5493 112.033C95.9398 111.977 96.2811 111.731 96.457 111.376L97.2733 109.722C97.6955 108.828 98.9692 108.828 99.4126 109.722Z" fill="#F8D90F"/>
<path d="M282.393 282.16L282.389 281.77C282.382 280.845 283.128 280.088 284.053 280.085L314.812 279.877C315.738 279.87 316.494 280.616 316.498 281.541L316.501 281.932C316.508 282.857 315.762 283.614 314.837 283.617L284.078 283.825C283.153 283.832 282.396 283.086 282.393 282.16Z" fill="#0093B7"/>
<path d="M288.385 280.517C288.42 277.801 291.414 276.168 293.715 277.611L298.244 280.451" stroke="#0093B7" stroke-width="2.07084" stroke-miterlimit="10"/>
<path d="M309.267 281.07C309.443 278.361 306.59 276.499 304.179 277.755L299.443 280.229" stroke="#0093B7" stroke-width="2.07084" stroke-miterlimit="10"/>
<path d="M336.17 309.102C345.478 309.102 353.023 307.789 353.023 306.171C353.023 304.552 345.478 303.24 336.17 303.24C326.862 303.24 319.316 304.552 319.316 306.171C319.316 307.789 326.862 309.102 336.17 309.102Z" fill="#002E55"/>
<path d="M351.472 284.033V305.049C351.472 305.985 350.705 306.752 349.769 306.752H322.508C321.572 306.752 320.805 305.985 320.805 305.049V284.033C320.805 283.097 321.572 282.33 322.508 282.33H349.769C350.709 282.333 351.472 283.097 351.472 284.033Z" fill="#00BDCC"/>
<path d="M337.454 282.333H334.825V306.702H337.454V282.333Z" fill="#FDD700"/>
<path d="M351.472 293.311H320.805V295.774H351.472V293.311Z" fill="#FDD700"/>
<path d="M318.954 282.133L318.95 281.742C318.943 280.817 319.689 280.06 320.615 280.057L351.373 279.849C352.299 279.842 353.055 280.588 353.059 281.513L353.062 281.904C353.069 282.829 352.323 283.586 351.398 283.589L320.639 283.797C319.714 283.804 318.957 283.058 318.954 282.133Z" fill="#0093B7"/>
<path d="M324.946 280.489C324.981 277.773 327.975 276.14 330.276 277.583L334.804 280.422" stroke="#0093B7" stroke-width="2.07084" stroke-miterlimit="10"/>
<path d="M345.829 281.041C346.004 278.332 343.151 276.471 340.741 277.727L336.005 280.201" stroke="#0093B7" stroke-width="2.07084" stroke-miterlimit="10"/>
<path d="M272.773 135.016C281.688 135.016 288.916 127.789 288.916 118.873C288.916 109.958 281.688 102.73 272.773 102.73C263.857 102.73 256.63 109.958 256.63 118.873C256.63 127.789 263.857 135.016 272.773 135.016Z" fill="#F8D90F"/>
<defs>
<linearGradient id="paint0_linear_364_26389" x1="206.147" y1="249.709" x2="279.369" y2="249.709" gradientUnits="userSpaceOnUse">
<stop stop-color="#D2DC19"/>
<stop offset="1" stop-color="#D2DC19"/>
</linearGradient>
<linearGradient id="paint1_linear_364_26389" x1="262.755" y1="257.995" x2="304.462" y2="257.995" gradientUnits="userSpaceOnUse">
<stop stop-color="#D2DC19"/>
<stop offset="1" stop-color="#D2DC19"/>
</linearGradient>
<linearGradient id="paint2_linear_364_26389" x1="124.587" y1="218.153" x2="124.587" y2="139.878" gradientUnits="userSpaceOnUse">
<stop stop-color="#D2DC19"/>
<stop offset="1" stop-color="#D2DC19"/>
</linearGradient>
<linearGradient id="paint3_linear_364_26389" x1="92.7202" y1="259.135" x2="127.953" y2="259.135" gradientUnits="userSpaceOnUse">
<stop stop-color="#D2DC19"/>
<stop offset="1" stop-color="#D2DC19"/>
</linearGradient>
<linearGradient id="paint4_linear_364_26389" x1="117.298" y1="259.135" x2="153.458" y2="259.135" gradientUnits="userSpaceOnUse">
<stop stop-color="#D2DC19"/>
<stop offset="1" stop-color="#D2DC19"/>
</linearGradient>
</defs>
</svg>
