<svg width="380" height="377" viewBox="0 0 380 377" fill="none" xmlns="http://www.w3.org/2000/svg">
<path d="M303.271 111.12C309.168 111.12 313.948 106.349 313.948 100.464C313.948 94.5789 309.168 89.808 303.271 89.808C297.374 89.808 292.594 94.5789 292.594 100.464C292.594 106.349 297.374 111.12 303.271 111.12Z" fill="#0F2D52"/>
<path d="M380 376.346H118.378L131.747 356.959H362.175L380 376.346Z" fill="#0191B4"/>
<path d="M380 374.896H118.378L131.747 355.505H362.175L380 374.896Z" fill="url(#paint0_linear_364_26094)"/>
<path d="M262.242 263.211H133.592C131.369 263.211 129.237 262.33 127.665 260.761C126.093 259.192 125.209 257.064 125.209 254.845V8.36572C125.209 6.14699 126.093 4.01914 127.665 2.45026C129.237 0.881383 131.369 0 133.592 0H262.242C264.465 0 266.597 0.881383 268.169 2.45026C269.741 4.01914 270.624 6.14699 270.624 8.36572V254.845C270.624 257.064 269.741 259.192 268.169 260.761C266.597 262.33 264.465 263.211 262.242 263.211ZM134.037 262.766H261.796C264.019 262.766 266.151 261.885 267.723 260.316C269.295 258.747 270.178 256.619 270.178 254.401V8.81047C270.178 6.59174 269.295 4.46388 267.723 2.89501C266.151 1.32613 264.019 0.444748 261.796 0.444748H134.037C131.814 0.444748 129.682 1.32613 128.11 2.89501C126.538 4.46388 125.655 6.59174 125.655 8.81047V254.401C125.655 256.619 126.538 258.747 128.11 260.316C129.682 261.885 131.814 262.766 134.037 262.766Z" fill="#F2F2F5"/>
<path d="M255.824 8.966H140.004C137.57 8.966 135.597 10.9353 135.597 13.3646V249.53C135.597 251.96 137.57 253.929 140.004 253.929H255.824C258.259 253.929 260.232 251.96 260.232 249.53V13.3646C260.232 10.9353 258.259 8.966 255.824 8.966Z" fill="#F2F2F5"/>
<path d="M296.439 116.342C302.336 116.342 307.116 111.571 307.116 105.686C307.116 99.8004 302.336 95.0294 296.439 95.0294C290.542 95.0294 285.762 99.8004 285.762 105.686C285.762 111.571 290.542 116.342 296.439 116.342Z" fill="#35BBCA"/>
<path d="M260.236 189.516V247.663C260.236 249.323 259.575 250.916 258.399 252.09C257.222 253.265 255.626 253.925 253.962 253.925H190.343C190.312 253.102 190.294 252.275 190.294 251.443C190.294 234.902 196.878 219.039 208.598 207.343C220.317 195.647 236.212 189.076 252.785 189.076C255.276 189.076 257.764 189.223 260.236 189.516Z" fill="url(#paint1_linear_364_26094)"/>
<path d="M45.2583 373.015C64.6054 373.015 80.2895 370.293 80.2895 366.935C80.2895 363.577 64.6054 360.855 45.2583 360.855C25.9111 360.855 10.2271 363.577 10.2271 366.935C10.2271 370.293 25.9111 373.015 45.2583 373.015Z" fill="#0F2D52"/>
<path d="M178.387 369.577C188.158 369.577 196.079 368.201 196.079 366.504C196.079 364.807 188.158 363.431 178.387 363.431C168.616 363.431 160.695 364.807 160.695 366.504C160.695 368.201 168.616 369.577 178.387 369.577Z" fill="#0F2D52"/>
<path d="M212.455 361.305C222.226 361.305 230.147 359.929 230.147 358.232C230.147 356.534 222.226 355.158 212.455 355.158C202.684 355.158 194.764 356.534 194.764 358.232C194.764 359.929 202.684 361.305 212.455 361.305Z" fill="#0F2D52"/>
<path d="M276.364 372.499C291.904 372.499 304.501 370.313 304.501 367.616C304.501 364.919 291.904 362.732 276.364 362.732C260.824 362.732 248.227 364.919 248.227 367.616C248.227 370.313 260.824 372.499 276.364 372.499Z" fill="#0F2D52"/>
<path d="M339.345 368.834C349.064 368.834 356.943 367.466 356.943 365.779C356.943 364.091 349.064 362.723 339.345 362.723C329.625 362.723 321.747 364.091 321.747 365.779C321.747 367.466 329.625 368.834 339.345 368.834Z" fill="#0F2D52"/>
<path d="M44.1448 323.372V324.066C44.1448 324.066 49.1047 326.539 49.1047 331.137V351.489C49.1047 351.489 49.4523 354.345 44.3409 355.35C39.3453 356.333 37.0236 356.083 37.0236 356.083C37.0236 356.083 34.7018 356.333 29.7063 355.35C24.5949 354.345 24.9425 351.489 24.9425 351.489V331.137C24.9425 326.539 29.8979 324.066 29.8979 324.066V323.372C32.0058 322.581 41.9077 322.83 44.1448 323.372Z" fill="#DBC2FF"/>
<path d="M21.8901 329.523V340.784C31.9662 341.32 42.0637 341.32 52.1397 340.784V329.523C42.0635 330.055 31.9663 330.055 21.8901 329.523Z" fill="#A070E7"/>
<g style="mix-blend-mode:screen" opacity="0.7">
<path d="M21.8901 340.784V351.013C27.0506 352.517 45.7137 352.223 52.1397 351.013V340.784C42.0637 341.32 31.9662 341.32 21.8901 340.784Z" fill="#333333"/>
</g>
<path style="mix-blend-mode:screen" opacity="0.6" d="M29.6039 327.304C34.4613 327.304 38.4007 328.296 38.4007 329.527C38.4007 330.759 34.4613 331.751 29.6039 331.751C24.7465 331.751 20.8071 330.759 20.8071 329.527C20.8071 328.296 24.7465 327.304 29.6039 327.304Z" fill="url(#paint2_radial_364_26094)"/>
<path style="mix-blend-mode:screen" opacity="0.6" d="M29.6039 332.009C34.4623 332.009 38.4007 331.018 38.4007 329.795C38.4007 328.571 34.4623 327.58 29.6039 327.58C24.7456 327.58 20.8071 328.571 20.8071 329.795C20.8071 331.018 24.7456 332.009 29.6039 332.009Z" fill="url(#paint3_radial_364_26094)"/>
<path d="M44.1445 324.044V323.372C41.9164 322.83 32.0055 322.581 29.8843 323.372V324.044C32.0055 323.252 41.9074 323.506 44.1445 324.044Z" fill="#0A0A0A"/>
<path style="mix-blend-mode:screen" opacity="0.6" d="M32.527 322.042C35.8648 322.042 38.5742 322.678 38.5787 323.519C38.5831 324.36 35.9049 325.058 32.5493 325.085C29.1936 325.111 26.5065 324.449 26.4976 323.608C26.4887 322.767 29.1937 322.069 32.527 322.042Z" fill="url(#paint4_radial_364_26094)"/>
<path style="mix-blend-mode:screen" opacity="0.6" d="M32.527 322.042C35.8648 322.042 38.5742 322.678 38.5787 323.519C38.5831 324.36 35.9049 325.058 32.5493 325.085C29.1936 325.111 26.5065 324.449 26.4976 323.608C26.4887 322.767 29.1937 322.069 32.527 322.042Z" fill="url(#paint5_radial_364_26094)"/>
<path style="mix-blend-mode:screen" opacity="0.6" d="M44.4878 322.354C47.8166 322.576 50.4682 323.43 50.4147 324.266C50.3612 325.102 47.6161 325.6 44.2872 325.387C40.9584 325.173 38.3024 324.315 38.3603 323.475C38.4182 322.634 41.15 322.136 44.4878 322.354Z" fill="url(#paint6_radial_364_26094)"/>
<g style="mix-blend-mode:screen">
<path d="M28.2266 322.171V323.759C28.2266 323.759 33.1864 323.314 37.3442 323.314C40.5483 323.314 43.5474 323.666 45.0848 323.732V322.149C43.5385 322.078 39.9511 321.936 37.2283 321.936C34.4253 321.953 29.9824 322.109 28.2266 322.171Z" fill="#131313"/>
</g>
<path d="M29.3317 323.532C29.2552 323.547 29.1765 323.546 29.1004 323.53C29.0242 323.513 28.9521 323.482 28.8885 323.437C28.8248 323.392 28.7709 323.335 28.7299 323.269C28.6889 323.202 28.6617 323.129 28.6499 323.052V319.352C28.6647 319.239 28.7164 319.134 28.797 319.054C28.8776 318.973 28.9825 318.922 29.0955 318.907C29.9333 318.711 32.1259 318.36 37.0189 318.36C41.912 318.36 44.1045 318.711 44.9423 318.907C45.0553 318.922 45.1603 318.973 45.2409 319.054C45.3215 319.134 45.3731 319.239 45.3879 319.352V323.052C45.3761 323.129 45.3489 323.202 45.3079 323.269C45.2669 323.335 45.213 323.392 45.1493 323.437C45.0857 323.482 45.0136 323.513 44.9374 323.53C44.8613 323.546 44.7826 323.547 44.7061 323.532C43.3692 323.425 40.3077 323.208 37.0234 323.208C33.739 323.208 30.6553 323.425 29.3317 323.532Z" fill="#A070E7"/>
<path d="M28.6856 317.791H28.6099V324.657H28.6856V317.791Z" fill="#3B3B3B"/>
<path d="M29.0108 317.791H28.9351V324.657H29.0108V317.791Z" fill="#3B3B3B"/>
<path d="M29.3409 317.791H29.2651V324.657H29.3409V317.791Z" fill="#3B3B3B"/>
<path d="M29.6705 317.791H29.5947V324.657H29.6705V317.791Z" fill="#3B3B3B"/>
<path d="M29.9957 317.791H29.9199V324.657H29.9957V317.791Z" fill="#3B3B3B"/>
<path d="M30.3258 317.791H30.25V324.657H30.3258V317.791Z" fill="#3B3B3B"/>
<path d="M30.651 317.791H30.5752V324.657H30.651V317.791Z" fill="#3B3B3B"/>
<path d="M30.9805 317.791H30.9048V324.657H30.9805V317.791Z" fill="#3B3B3B"/>
<path d="M31.3106 317.791H31.2349V324.657H31.3106V317.791Z" fill="#3B3B3B"/>
<path d="M31.6358 317.791H31.5601V324.657H31.6358V317.791Z" fill="#3B3B3B"/>
<path d="M31.9654 317.791H31.8896V324.657H31.9654V317.791Z" fill="#3B3B3B"/>
<path d="M32.2955 317.791H32.2197V324.657H32.2955V317.791Z" fill="#3B3B3B"/>
<path d="M32.6207 317.791H32.5449V324.657H32.6207V317.791Z" fill="#3B3B3B"/>
<path d="M32.9503 317.791H32.8745V324.657H32.9503V317.791Z" fill="#3B3B3B"/>
<path d="M33.2755 317.791H33.1997V324.657H33.2755V317.791Z" fill="#3B3B3B"/>
<path d="M33.6055 317.791H33.5298V324.657H33.6055V317.791Z" fill="#3B3B3B"/>
<path d="M33.9351 317.791H33.8594V324.657H33.9351V317.791Z" fill="#3B3B3B"/>
<path d="M34.2603 317.791H34.1846V324.657H34.2603V317.791Z" fill="#3B3B3B"/>
<path d="M34.5904 317.791H34.5146V324.657H34.5904V317.791Z" fill="#3B3B3B"/>
<path d="M34.92 317.791H34.8442V324.657H34.92V317.791Z" fill="#3B3B3B"/>
<path d="M35.2452 317.791H35.1694V324.657H35.2452V317.791Z" fill="#3B3B3B"/>
<path d="M35.5753 317.791H35.4995V324.657H35.5753V317.791Z" fill="#3B3B3B"/>
<path d="M35.9005 317.791H35.8247V324.657H35.9005V317.791Z" fill="#3B3B3B"/>
<path d="M36.2301 317.791H36.1543V324.657H36.2301V317.791Z" fill="#3B3B3B"/>
<path d="M36.5601 317.791H36.4844V324.657H36.5601V317.791Z" fill="#3B3B3B"/>
<path d="M36.8853 317.791H36.8096V324.657H36.8853V317.791Z" fill="#3B3B3B"/>
<path d="M37.2149 317.791H37.1392V324.657H37.2149V317.791Z" fill="#3B3B3B"/>
<path d="M37.545 317.791H37.4692V324.657H37.545V317.791Z" fill="#3B3B3B"/>
<path d="M37.8702 317.791H37.7944V324.657H37.8702V317.791Z" fill="#3B3B3B"/>
<path d="M38.1998 317.791H38.124V324.657H38.1998V317.791Z" fill="#3B3B3B"/>
<path d="M38.525 317.791H38.4492V324.657H38.525V317.791Z" fill="#3B3B3B"/>
<path d="M38.8551 317.791H38.7793V324.657H38.8551V317.791Z" fill="#3B3B3B"/>
<path d="M39.1846 317.791H39.1089V324.657H39.1846V317.791Z" fill="#3B3B3B"/>
<path d="M39.5098 317.791H39.4341V324.657H39.5098V317.791Z" fill="#3B3B3B"/>
<path d="M39.8399 317.791H39.7642V324.657H39.8399V317.791Z" fill="#3B3B3B"/>
<path d="M40.1695 317.791H40.0938V324.657H40.1695V317.791Z" fill="#3B3B3B"/>
<path d="M40.4947 317.791H40.4189V324.657H40.4947V317.791Z" fill="#3B3B3B"/>
<path d="M40.8248 317.791H40.749V324.657H40.8248V317.791Z" fill="#3B3B3B"/>
<path d="M41.15 317.791H41.0742V324.657H41.15V317.791Z" fill="#3B3B3B"/>
<path d="M41.4801 317.791H41.4043V324.657H41.4801V317.791Z" fill="#3B3B3B"/>
<path d="M41.8096 317.791H41.7339V324.657H41.8096V317.791Z" fill="#3B3B3B"/>
<path d="M42.1348 317.791H42.0591V324.657H42.1348V317.791Z" fill="#3B3B3B"/>
<path d="M42.4649 317.791H42.3892V324.657H42.4649V317.791Z" fill="#3B3B3B"/>
<path d="M42.7945 317.791H42.7188V324.657H42.7945V317.791Z" fill="#3B3B3B"/>
<path d="M43.1197 317.791H43.0439V324.657H43.1197V317.791Z" fill="#3B3B3B"/>
<path d="M43.4498 317.791H43.374V324.657H43.4498V317.791Z" fill="#3B3B3B"/>
<path d="M43.775 317.791H43.6992V324.657H43.775V317.791Z" fill="#3B3B3B"/>
<path d="M44.1046 317.791H44.0288V324.657H44.1046V317.791Z" fill="#3B3B3B"/>
<path d="M44.4347 317.791H44.3589V324.657H44.4347V317.791Z" fill="#3B3B3B"/>
<path d="M44.7598 317.791H44.6841V324.657H44.7598V317.791Z" fill="#3B3B3B"/>
<path d="M45.0894 317.791H45.0137V324.657H45.0894V317.791Z" fill="#3B3B3B"/>
<path d="M45.4195 317.791H45.3438V324.657H45.4195V317.791Z" fill="#3B3B3B"/>
<g style="mix-blend-mode:screen" opacity="0.6">
<g style="mix-blend-mode:screen" opacity="0.6">
<path d="M28.7657 317.59H28.6899V324.457H28.7657V317.59Z" fill="#717171"/>
</g>
<g style="mix-blend-mode:screen" opacity="0.6">
<path d="M29.0958 317.59H29.02V324.457H29.0958V317.59Z" fill="#717171"/>
</g>
<g style="mix-blend-mode:screen" opacity="0.6">
<path d="M29.421 317.59H29.3452V324.457H29.421V317.59Z" fill="#717171"/>
</g>
<g style="mix-blend-mode:screen" opacity="0.6">
<path d="M29.7506 317.59H29.6748V324.457H29.7506V317.59Z" fill="#717171"/>
</g>
<g style="mix-blend-mode:screen" opacity="0.6">
<path d="M30.0806 317.59H30.0049V324.457H30.0806V317.59Z" fill="#717171"/>
</g>
<g style="mix-blend-mode:screen" opacity="0.6">
<path d="M30.4058 317.59H30.3301V324.457H30.4058V317.59Z" fill="#717171"/>
</g>
<g style="mix-blend-mode:screen" opacity="0.6">
<path d="M30.7354 317.59H30.6597V324.457H30.7354V317.59Z" fill="#717171"/>
</g>
<g style="mix-blend-mode:screen" opacity="0.6">
<path d="M31.0606 317.59H30.9849V324.457H31.0606V317.59Z" fill="#717171"/>
</g>
<g style="mix-blend-mode:screen" opacity="0.6">
<path d="M31.3907 317.59H31.3149V324.457H31.3907V317.59Z" fill="#717171"/>
</g>
<g style="mix-blend-mode:screen" opacity="0.6">
<path d="M31.7203 317.59H31.6445V324.457H31.7203V317.59Z" fill="#717171"/>
</g>
<g style="mix-blend-mode:screen" opacity="0.6">
<path d="M32.0455 317.59H31.9697V324.457H32.0455V317.59Z" fill="#717171"/>
</g>
<g style="mix-blend-mode:screen" opacity="0.6">
<path d="M32.3756 317.59H32.2998V324.457H32.3756V317.59Z" fill="#717171"/>
</g>
<g style="mix-blend-mode:screen" opacity="0.6">
<path d="M32.7052 317.59H32.6294V324.457H32.7052V317.59Z" fill="#717171"/>
</g>
<g style="mix-blend-mode:screen" opacity="0.6">
<path d="M33.0304 317.59H32.9546V324.457H33.0304V317.59Z" fill="#717171"/>
</g>
<g style="mix-blend-mode:screen" opacity="0.6">
<path d="M33.3604 317.59H33.2847V324.457H33.3604V317.59Z" fill="#717171"/>
</g>
<g style="mix-blend-mode:screen" opacity="0.6">
<path d="M33.6856 317.59H33.6099V324.457H33.6856V317.59Z" fill="#717171"/>
</g>
<g style="mix-blend-mode:screen" opacity="0.6">
<path d="M34.0152 317.59H33.9395V324.457H34.0152V317.59Z" fill="#717171"/>
</g>
<g style="mix-blend-mode:screen" opacity="0.6">
<path d="M34.3453 317.59H34.2695V324.457H34.3453V317.59Z" fill="#717171"/>
</g>
<g style="mix-blend-mode:screen" opacity="0.6">
<path d="M34.6705 317.59H34.5947V324.457H34.6705V317.59Z" fill="#717171"/>
</g>
<g style="mix-blend-mode:screen" opacity="0.6">
<path d="M35.0001 317.59H34.9243V324.457H35.0001V317.59Z" fill="#717171"/>
</g>
<g style="mix-blend-mode:screen" opacity="0.6">
<path d="M35.3301 317.59H35.2544V324.457H35.3301V317.59Z" fill="#717171"/>
</g>
<g style="mix-blend-mode:screen" opacity="0.6">
<path d="M35.6553 317.59H35.5796V324.457H35.6553V317.59Z" fill="#717171"/>
</g>
<g style="mix-blend-mode:screen" opacity="0.6">
<path d="M35.9849 317.59H35.9092V324.457H35.9849V317.59Z" fill="#717171"/>
</g>
<g style="mix-blend-mode:screen" opacity="0.6">
<path d="M36.3101 317.59H36.2344V324.457H36.3101V317.59Z" fill="#717171"/>
</g>
<g style="mix-blend-mode:screen" opacity="0.6">
<path d="M36.5645 317.595H36.6402V324.457H36.5645" fill="#717171"/>
</g>
<g style="mix-blend-mode:screen" opacity="0.6">
<path d="M36.9698 317.59H36.894V324.457H36.9698V317.59Z" fill="#717171"/>
</g>
<g style="mix-blend-mode:screen" opacity="0.6">
<path d="M37.295 317.59H37.2192V324.457H37.295V317.59Z" fill="#717171"/>
</g>
<g style="mix-blend-mode:screen" opacity="0.6">
<path d="M37.6251 317.59H37.5493V324.457H37.6251V317.59Z" fill="#717171"/>
</g>
<g style="mix-blend-mode:screen" opacity="0.6">
<path d="M37.9547 317.59H37.8789V324.457H37.9547V317.59Z" fill="#717171"/>
</g>
<g style="mix-blend-mode:screen" opacity="0.6">
<path d="M38.2799 317.59H38.2041V324.457H38.2799V317.59Z" fill="#717171"/>
</g>
<g style="mix-blend-mode:screen" opacity="0.6">
<path d="M38.6099 317.59H38.5342V324.457H38.6099V317.59Z" fill="#717171"/>
</g>
<g style="mix-blend-mode:screen" opacity="0.6">
<path d="M38.9351 317.59H38.8594V324.457H38.9351V317.59Z" fill="#717171"/>
</g>
<g style="mix-blend-mode:screen" opacity="0.6">
<path d="M39.2647 317.59H39.189V324.457H39.2647V317.59Z" fill="#717171"/>
</g>
<g style="mix-blend-mode:screen" opacity="0.6">
<path d="M39.5948 317.59H39.519V324.457H39.5948V317.59Z" fill="#717171"/>
</g>
<g style="mix-blend-mode:screen" opacity="0.6">
<path d="M39.92 317.59H39.8442V324.457H39.92V317.59Z" fill="#717171"/>
</g>
<g style="mix-blend-mode:screen" opacity="0.6">
<path d="M40.2496 317.59H40.1738V324.457H40.2496V317.59Z" fill="#717171"/>
</g>
<g style="mix-blend-mode:screen" opacity="0.6">
<path d="M40.5797 317.59H40.5039V324.457H40.5797V317.59Z" fill="#717171"/>
</g>
<g style="mix-blend-mode:screen" opacity="0.6">
<path d="M40.9048 317.59H40.8291V324.457H40.9048V317.59Z" fill="#717171"/>
</g>
<g style="mix-blend-mode:screen" opacity="0.6">
<path d="M41.2349 317.59H41.1592V324.457H41.2349V317.59Z" fill="#717171"/>
</g>
<g style="mix-blend-mode:screen" opacity="0.6">
<path d="M41.5601 317.59H41.4844V324.457H41.5601V317.59Z" fill="#717171"/>
</g>
<g style="mix-blend-mode:screen" opacity="0.6">
<path d="M41.8897 317.59H41.814V324.457H41.8897V317.59Z" fill="#717171"/>
</g>
<g style="mix-blend-mode:screen" opacity="0.6">
<path d="M42.2198 317.59H42.144V324.457H42.2198V317.59Z" fill="#717171"/>
</g>
<g style="mix-blend-mode:screen" opacity="0.6">
<path d="M42.545 317.59H42.4692V324.457H42.545V317.59Z" fill="#717171"/>
</g>
<g style="mix-blend-mode:screen" opacity="0.6">
<path d="M42.8746 317.59H42.7988V324.457H42.8746V317.59Z" fill="#717171"/>
</g>
<g style="mix-blend-mode:screen" opacity="0.6">
<path d="M43.2047 317.59H43.1289V324.457H43.2047V317.59Z" fill="#717171"/>
</g>
<g style="mix-blend-mode:screen" opacity="0.6">
<path d="M43.5299 317.59H43.4541V324.457H43.5299V317.59Z" fill="#717171"/>
</g>
<g style="mix-blend-mode:screen" opacity="0.6">
<path d="M43.8594 317.59H43.7837V324.457H43.8594V317.59Z" fill="#717171"/>
</g>
<g style="mix-blend-mode:screen" opacity="0.6">
<path d="M44.1846 317.59H44.1089V324.457H44.1846V317.59Z" fill="#717171"/>
</g>
<g style="mix-blend-mode:screen" opacity="0.6">
<path d="M44.5147 317.59H44.439V324.457H44.5147V317.59Z" fill="#717171"/>
</g>
<g style="mix-blend-mode:screen" opacity="0.6">
<path d="M44.8438 317.59H44.7681V324.457H44.8438V317.59Z" fill="#717171"/>
</g>
<g style="mix-blend-mode:screen" opacity="0.6">
<path d="M45.1695 317.59H45.0938V324.457H45.1695V317.59Z" fill="#717171"/>
</g>
<g style="mix-blend-mode:screen" opacity="0.6">
<path d="M45.4996 317.59H45.4238V324.457H45.4996V317.59Z" fill="#717171"/>
</g>
</g>
<path style="mix-blend-mode:multiply" d="M66.9119 318.133C66.9119 318.449 54.6837 318.707 39.5991 318.707C24.5144 318.707 12.2817 318.449 12.2817 318.133C12.2817 317.817 24.5099 317.559 39.5991 317.559C54.6882 317.559 66.9119 317.804 66.9119 318.133Z" fill="url(#paint7_radial_364_26094)"/>
<path d="M60.5973 366.611H16.6802V334.9L61.796 334.553V365.414C61.7966 365.572 61.766 365.727 61.706 365.873C61.646 366.018 61.5577 366.15 61.4462 366.262C61.3348 366.373 61.2025 366.461 61.0568 366.521C60.911 366.581 60.7549 366.611 60.5973 366.611Z" fill="#FDC666"/>
<path d="M9.31793 334.895H16.6798V366.606H12.7716C11.8544 366.606 10.9749 366.242 10.3263 365.595C9.67781 364.948 9.31348 364.07 9.31348 363.155V334.895H9.31793Z" fill="#FEA202"/>
<path d="M16.6802 334.891L22.2595 340.459C22.5159 340.716 22.821 340.919 23.1569 341.056C23.4928 341.194 23.8528 341.263 24.2158 341.26H68.3335L61.7114 334.647L16.6802 334.891Z" fill="#FEA202"/>
<path d="M9.31827 334.891L4.04199 341.643C3.96158 341.744 3.91152 341.867 3.89756 341.995C3.8836 342.124 3.9063 342.254 3.96306 342.371C4.01981 342.487 4.10834 342.586 4.21846 342.654C4.32858 342.723 4.45582 342.759 4.58565 342.759H9.31827V334.891Z" fill="black"/>
<path d="M16.6802 334.891L22.4734 342.83C22.5806 342.97 22.719 343.083 22.8776 343.16C23.0361 343.237 23.2106 343.277 23.387 343.275H61.7872V341.26H23.0527L16.6802 334.891Z" fill="black"/>
<path d="M61.8005 359.859H16.6802V363.702H61.8005V359.859Z" fill="#FEA202"/>
<path d="M16.6802 363.702L17.5714 362.71C17.6867 362.584 17.8271 362.483 17.9836 362.414C18.1402 362.345 18.3094 362.309 18.4806 362.309C18.6517 362.309 18.8209 362.345 18.9774 362.414C19.134 362.483 19.2744 362.584 19.3897 362.71L19.4208 362.75C19.5229 362.862 19.6479 362.951 19.7873 363.011C19.9266 363.07 20.0772 363.099 20.2289 363.096C20.3805 363.093 20.5296 363.057 20.6662 362.991C20.8028 362.925 20.9237 362.831 21.0206 362.715L21.0786 362.648C21.1936 362.51 21.3376 362.399 21.5005 362.322C21.6634 362.246 21.8411 362.206 22.0211 362.206C22.201 362.206 22.3788 362.246 22.5417 362.322C22.7046 362.399 22.8486 362.51 22.9636 362.648V362.648C23.0606 362.764 23.1815 362.858 23.318 362.924C23.4546 362.99 23.6038 363.026 23.7554 363.029C23.907 363.033 24.0576 363.003 24.197 362.944C24.3364 362.884 24.4614 362.795 24.5634 362.683L24.7684 362.461C24.8836 362.336 25.0235 362.237 25.1792 362.168C25.3349 362.1 25.5031 362.065 25.6731 362.065C25.8431 362.065 26.0113 362.1 26.167 362.168C26.3227 362.237 26.4625 362.336 26.5777 362.461L27.0902 363.017C27.1877 363.121 27.3054 363.205 27.4361 363.263C27.5668 363.322 27.7079 363.353 27.851 363.355C27.9941 363.358 28.1362 363.331 28.2689 363.278C28.4015 363.224 28.522 363.145 28.6232 363.044L29.2158 362.452C29.447 362.223 29.7594 362.095 30.0848 362.095C30.4103 362.095 30.7226 362.223 30.9538 362.452L31.3326 362.835C31.4311 362.933 31.5481 363.011 31.677 363.065C31.8058 363.118 31.944 363.146 32.0835 363.146C32.223 363.146 32.3611 363.118 32.49 363.065C32.6188 363.011 32.7358 362.933 32.8344 362.835L33.3602 362.314C33.4741 362.2 33.6095 362.109 33.7587 362.047C33.9078 361.985 34.0677 361.954 34.2292 361.954C34.3907 361.954 34.5507 361.985 34.6998 362.047C34.8489 362.109 34.9843 362.2 35.0982 362.314L35.7577 362.977C35.9581 363.175 36.2287 363.286 36.5108 363.286C36.793 363.286 37.0637 363.175 37.264 362.977L37.9502 362.288C38.0641 362.173 38.1996 362.083 38.3487 362.021C38.4978 361.959 38.6577 361.927 38.8192 361.927C38.9808 361.927 39.1407 361.959 39.2898 362.021C39.4389 362.083 39.5743 362.173 39.6882 362.288L40.2675 362.866C40.3661 362.964 40.4831 363.043 40.6119 363.096C40.7408 363.149 40.8789 363.177 41.0184 363.177C41.1579 363.177 41.2961 363.149 41.4249 363.096C41.5538 363.043 41.6708 362.964 41.7693 362.866L42.4868 362.163C42.6007 362.049 42.7361 361.958 42.8852 361.896C43.0343 361.834 43.1942 361.802 43.3558 361.802C43.5173 361.802 43.6772 361.834 43.8264 361.896C43.9755 361.958 44.1109 362.049 44.2248 362.163L44.9422 362.879C45.0408 362.978 45.1578 363.056 45.2866 363.109C45.4155 363.163 45.5536 363.19 45.6931 363.19C45.8326 363.19 45.9708 363.163 46.0996 363.109C46.2285 363.056 46.3455 362.978 46.444 362.879L47.2773 362.052C47.3912 361.938 47.5266 361.847 47.6758 361.785C47.8249 361.723 47.9848 361.691 48.1463 361.691C48.3078 361.691 48.4678 361.723 48.6169 361.785C48.766 361.847 48.9014 361.938 49.0153 362.052L49.8442 362.884C49.9427 362.982 50.0597 363.06 50.1886 363.114C50.3174 363.167 50.4556 363.195 50.5951 363.195C50.7346 363.195 50.8727 363.167 51.0016 363.114C51.1304 363.06 51.2475 362.982 51.346 362.884L52.1525 362.083C52.2664 361.969 52.4019 361.878 52.551 361.816C52.7001 361.754 52.86 361.722 53.0216 361.722C53.1831 361.722 53.343 361.754 53.4921 361.816C53.6412 361.878 53.7766 361.969 53.8905 362.083L54.7506 362.941C54.8491 363.04 54.9662 363.118 55.095 363.172C55.2239 363.225 55.362 363.252 55.5015 363.252C55.641 363.252 55.7791 363.225 55.908 363.172C56.0368 363.118 56.1539 363.04 56.2524 362.941L57.0679 362.123C57.1818 362.009 57.3172 361.918 57.4663 361.856C57.6154 361.794 57.7754 361.762 57.9369 361.762C58.0984 361.762 58.2583 361.794 58.4074 361.856C58.5566 361.918 58.692 362.009 58.8059 362.123L59.6971 363.013C59.7957 363.111 59.9127 363.189 60.0415 363.243C60.1704 363.296 60.3085 363.324 60.448 363.324C60.5875 363.324 60.7257 363.296 60.8545 363.243C60.9834 363.189 61.1004 363.111 61.1989 363.013L61.7381 362.474" stroke="#FDC666" stroke-width="1.21795" stroke-miterlimit="10"/>
<path d="M16.6802 362.377L17.5714 361.385C17.6867 361.259 17.8271 361.158 17.9836 361.089C18.1402 361.02 18.3094 360.984 18.4806 360.984C18.6517 360.984 18.8209 361.02 18.9774 361.089C19.134 361.158 19.2744 361.259 19.3897 361.385L19.4208 361.42C19.5229 361.532 19.6479 361.621 19.7873 361.681C19.9266 361.74 20.0772 361.77 20.2289 361.766C20.3805 361.763 20.5296 361.727 20.6662 361.661C20.8028 361.595 20.9237 361.501 21.0206 361.385L21.0786 361.318C21.1936 361.18 21.3376 361.069 21.5005 360.993C21.6634 360.916 21.8411 360.877 22.0211 360.877C22.201 360.877 22.3788 360.916 22.5417 360.993C22.7046 361.069 22.8486 361.18 22.9636 361.318V361.318C23.0606 361.434 23.1815 361.529 23.318 361.594C23.4546 361.66 23.6038 361.696 23.7554 361.699C23.907 361.703 24.0576 361.674 24.197 361.614C24.3364 361.554 24.4614 361.466 24.5634 361.354L24.7684 361.131C24.884 361.007 25.024 360.908 25.1796 360.84C25.3353 360.772 25.5033 360.738 25.6731 360.738C25.8429 360.738 26.0109 360.772 26.1665 360.84C26.3222 360.908 26.4622 361.007 26.5777 361.131L27.0902 361.687C27.1877 361.791 27.3052 361.875 27.4357 361.933C27.5663 361.991 27.7072 362.023 27.8501 362.026C27.993 362.029 28.135 362.003 28.2678 361.95C28.4006 361.897 28.5214 361.819 28.6232 361.718L29.2158 361.122C29.447 360.894 29.7594 360.765 30.0848 360.765C30.4103 360.765 30.7226 360.894 30.9538 361.122L31.3326 361.505C31.4311 361.603 31.5481 361.682 31.677 361.735C31.8058 361.788 31.944 361.816 32.0835 361.816C32.223 361.816 32.3611 361.788 32.49 361.735C32.6188 361.682 32.7358 361.603 32.8344 361.505L33.3602 360.984C33.4741 360.87 33.6095 360.779 33.7587 360.718C33.9078 360.656 34.0677 360.624 34.2292 360.624C34.3907 360.624 34.5507 360.656 34.6998 360.718C34.8489 360.779 34.9843 360.87 35.0982 360.984L35.7577 361.647C35.9581 361.845 36.2287 361.957 36.5108 361.957C36.793 361.957 37.0637 361.845 37.264 361.647L37.9502 360.958C38.0641 360.844 38.1996 360.753 38.3487 360.691C38.4978 360.629 38.6577 360.597 38.8192 360.597C38.9808 360.597 39.1407 360.629 39.2898 360.691C39.4389 360.753 39.5743 360.844 39.6882 360.958L40.2675 361.536C40.3661 361.635 40.4831 361.713 40.6119 361.766C40.7408 361.819 40.8789 361.847 41.0184 361.847C41.1579 361.847 41.2961 361.819 41.4249 361.766C41.5538 361.713 41.6708 361.635 41.7693 361.536L42.4868 360.829C42.6007 360.715 42.7361 360.624 42.8852 360.562C43.0343 360.5 43.1942 360.468 43.3558 360.468C43.5173 360.468 43.6772 360.5 43.8264 360.562C43.9755 360.624 44.1109 360.715 44.2248 360.829L44.9422 361.545C45.0408 361.643 45.1578 361.722 45.2866 361.775C45.4155 361.828 45.5536 361.856 45.6931 361.856C45.8326 361.856 45.9708 361.828 46.0996 361.775C46.2285 361.722 46.3455 361.643 46.444 361.545L47.2773 360.718C47.3912 360.603 47.5266 360.513 47.6758 360.451C47.8249 360.389 47.9848 360.357 48.1463 360.357C48.3078 360.357 48.4678 360.389 48.6169 360.451C48.766 360.513 48.9014 360.603 49.0153 360.718L49.8442 361.549C49.9427 361.648 50.0597 361.726 50.1886 361.779C50.3174 361.833 50.4556 361.86 50.5951 361.86C50.7346 361.86 50.8727 361.833 51.0016 361.779C51.1304 361.726 51.2475 361.648 51.346 361.549L52.1525 360.749C52.2664 360.634 52.4019 360.544 52.551 360.482C52.7001 360.42 52.86 360.388 53.0216 360.388C53.1831 360.388 53.343 360.42 53.4921 360.482C53.6412 360.544 53.7766 360.634 53.8905 360.749L54.7506 361.607C54.8491 361.706 54.9662 361.784 55.095 361.837C55.2239 361.891 55.362 361.918 55.5015 361.918C55.641 361.918 55.7791 361.891 55.908 361.837C56.0368 361.784 56.1539 361.706 56.2524 361.607L57.0679 360.789C57.1818 360.674 57.3172 360.584 57.4663 360.522C57.6154 360.46 57.7754 360.428 57.9369 360.428C58.0984 360.428 58.2583 360.46 58.4074 360.522C58.5566 360.584 58.692 360.674 58.8059 360.789L59.6971 361.678C59.7953 361.777 59.9123 361.856 60.0412 361.91C60.1701 361.963 60.3084 361.991 60.448 361.991C60.5877 361.991 60.7259 361.963 60.8548 361.91C60.9837 361.856 61.1007 361.777 61.1989 361.678L61.7381 361.14" stroke="#FDC666" stroke-width="1.21795" stroke-miterlimit="10"/>
<path d="M34.3979 348.469H35.3516V350.671H37.7001V348.469H38.6315V353.891H37.7268V351.431H35.3293V353.788H34.3979V348.469Z" fill="#FEA202"/>
<path d="M39.6968 348.469V353.891H40.6638V352.192L41.2476 351.609L42.8964 353.891H44.0372L41.9428 350.884L43.9258 348.469H42.6959L40.6504 350.978L40.6326 348.469H39.6968Z" fill="#FEA202"/>
<path d="M146.64 34.1165H30.2451C16.4601 34.1165 5.28516 45.2693 5.28516 59.0269V212.363C5.28516 226.12 16.4601 237.273 30.2451 237.273H146.64C160.425 237.273 171.6 226.12 171.6 212.363V59.0269C171.6 45.2693 160.425 34.1165 146.64 34.1165Z" fill="#F8D90F"/>
<path d="M141.355 34.1165H24.9599C11.1749 34.1165 0 45.2693 0 59.0269V212.363C0 226.12 11.1749 237.273 24.9599 237.273H141.355C155.14 237.273 166.315 226.12 166.315 212.363V59.0269C166.315 45.2693 155.14 34.1165 141.355 34.1165Z" fill="#0191B4"/>
<path d="M284.109 346.913L281.943 366.651L255.775 363.875L270.512 355.786L270.561 344.525L284.109 346.913Z" fill="#F09982"/>
<path d="M282.585 366.611L254.038 365.472C254.038 365.472 258.048 353.13 270.651 355.243L272.665 360.011L283.605 357.195L282.585 366.611Z" fill="#FE7A15"/>
<path d="M266.826 355.008L266.537 355.114L268.502 360.425L268.791 360.319L266.826 355.008Z" fill="#18334D"/>
<path d="M264.809 355.438L264.521 355.544L266.486 360.855L266.775 360.749L264.809 355.438Z" fill="#18334D"/>
<path d="M267.99 347.157L285.748 347.829L301.537 203.624L261.845 196.859L267.99 347.157Z" fill="#F2BA61"/>
<path d="M286.885 337.717L267.243 338.005L267.251 338.543L286.892 338.256L286.885 337.717Z" fill="#EC6D85"/>
<path d="M284.1 338.227C283.737 341.399 283.375 344.572 283.012 347.744C282.981 347.998 283.387 347.998 283.414 347.744C283.779 344.569 284.143 341.396 284.505 338.227C284.532 337.969 284.131 337.973 284.1 338.227Z" fill="#EC6D85"/>
<path d="M280.611 338.396L279.817 347.931C279.817 348.189 280.201 348.189 280.218 347.931L281.016 338.391C281.016 338.133 280.633 338.133 280.611 338.391V338.396Z" fill="#EC6D85"/>
<path d="M276.76 338.302L276.675 348.353C276.675 348.407 276.696 348.457 276.734 348.495C276.772 348.533 276.823 348.554 276.876 348.554C276.929 348.554 276.98 348.533 277.018 348.495C277.055 348.457 277.076 348.407 277.076 348.353L277.161 338.302C277.161 338.249 277.14 338.198 277.102 338.161C277.065 338.123 277.014 338.102 276.961 338.102C276.907 338.102 276.856 338.123 276.819 338.161C276.781 338.198 276.76 338.249 276.76 338.302Z" fill="#EC6D85"/>
<path d="M272.687 338.658C272.577 341.775 272.464 344.888 272.348 347.998C272.348 348.26 272.74 348.256 272.749 347.998C272.865 344.885 272.979 341.772 273.092 338.658C273.092 338.4 272.696 338.4 272.687 338.658Z" fill="#EC6D85"/>
<path d="M268.547 338.538C268.605 340.913 268.716 343.279 268.841 345.654C268.872 346.21 268.841 346.797 268.935 347.344C268.97 347.549 269.064 347.789 269.3 347.82C269.746 347.878 269.719 347.068 269.3 347.219C269.059 347.308 269.162 347.695 269.407 347.606C269.376 347.606 269.291 346.361 269.287 346.272C269.287 345.916 269.247 345.565 269.229 345.209C269.193 344.466 269.153 343.728 269.122 342.985C269.05 341.503 268.997 340.02 268.961 338.538C268.954 338.489 268.93 338.445 268.892 338.413C268.855 338.381 268.808 338.363 268.759 338.363C268.709 338.363 268.662 338.381 268.625 338.413C268.587 338.445 268.563 338.489 268.556 338.538H268.547Z" fill="#EC6D85"/>
<path d="M276.627 220.992L276.442 337.978L276.982 337.979L277.166 220.993L276.627 220.992Z" fill="#EC6D85"/>
<path d="M59.1535 63.5189L19.8709 126.86C-3.27081 164.174 36.2167 209.138 76.1053 190.686C76.5064 190.499 76.9075 190.308 77.3085 190.108L89.7862 70.1545L59.1535 63.5189Z" fill="#0F2D52"/>
<path d="M297.794 350.857L297.273 370.711L270.967 370.106L284.982 360.824L284.095 349.594L297.794 350.857Z" fill="#F09982"/>
<path d="M297.906 370.613L269.363 371.832C269.363 371.832 272.349 359.201 285.067 360.246L287.473 364.827L298.142 361.118L297.906 370.613Z" fill="#FE7A15"/>
<path d="M283.248 364.333L282.968 364.462L285.35 369.614L285.63 369.485L283.248 364.333Z" fill="#18334D"/>
<path d="M281.267 364.927L280.987 365.056L283.369 370.208L283.649 370.079L281.267 364.927Z" fill="#18334D"/>
<path d="M281.752 352.432L299.501 351.636L303.271 206.621L263.151 203.161L281.752 352.432Z" fill="#F8D90F"/>
<path d="M299.748 341.569L280.205 343.505L280.258 344.04L299.801 342.104L299.748 341.569Z" fill="#EC6D85"/>
<path d="M297.063 342.185L296.769 351.76C296.769 352.018 297.161 352.018 297.17 351.76C297.268 348.567 297.368 345.375 297.469 342.185C297.462 342.137 297.437 342.092 297.4 342.06C297.363 342.028 297.315 342.01 297.266 342.01C297.217 342.01 297.169 342.028 297.132 342.06C297.095 342.092 297.07 342.137 297.063 342.185Z" fill="#EC6D85"/>
<path d="M293.601 342.643V352.214C293.601 352.267 293.622 352.318 293.659 352.355C293.697 352.393 293.748 352.414 293.801 352.414C293.854 352.414 293.905 352.393 293.943 352.355C293.981 352.318 294.002 352.267 294.002 352.214V342.643C294.002 342.59 293.981 342.539 293.943 342.501C293.905 342.464 293.854 342.443 293.801 342.443C293.748 342.443 293.697 342.464 293.659 342.501C293.622 342.539 293.601 342.59 293.601 342.643Z" fill="#EC6D85"/>
<path d="M289.755 342.865L290.503 352.89C290.503 353.148 290.922 353.148 290.904 352.89L290.156 342.865C290.156 342.612 289.71 342.607 289.755 342.865Z" fill="#EC6D85"/>
<path d="M285.726 343.559C285.875 346.672 286.023 349.786 286.172 352.899C286.172 353.157 286.586 353.161 286.577 352.899L286.132 343.559C286.132 343.301 285.717 343.297 285.731 343.559H285.726Z" fill="#EC6D85"/>
<path d="M281.591 343.781C281.841 346.13 282.148 348.469 282.483 350.809C282.558 351.373 282.589 351.974 282.719 352.53C282.772 352.739 282.901 353.006 283.164 352.974C283.61 352.939 283.476 352.196 283.035 352.396C282.799 352.503 283.004 352.841 283.236 352.743L283.28 352.721H283.08C283.142 352.761 283.08 352.25 283.08 352.192C283.048 351.987 283.026 351.783 282.995 351.578C282.946 351.227 282.897 350.871 282.852 350.519C282.745 349.746 282.643 348.967 282.54 348.193C282.349 346.726 282.171 345.254 282.015 343.777C281.988 343.523 281.569 343.519 281.609 343.777L281.591 343.781Z" fill="#EC6D85"/>
<path d="M289.469 202.12L288.93 202.122L289.397 342.626L289.936 342.624L289.469 202.12Z" fill="#EC6D85"/>
<path d="M240.615 151.561C240.615 151.561 248.141 204.558 260.797 197.433C268.819 192.91 270.69 182.956 271.439 181.506C271.439 179.065 271.439 177.37 271.524 176.988C271.524 176.988 275.895 163.071 279.991 157.948C280.436 157.388 284.576 148.404 284.398 148.359C271.92 145.188 263.988 154.394 262.491 174.181C262.446 174.799 251.35 146.505 251.35 146.505C251.675 145.228 254.273 136.146 252.188 137.258C250.102 138.37 250.405 140.438 249.777 140.914C249.149 141.39 248.061 126.896 246.479 127.34C244.251 127.972 246.756 137.071 245.321 136.271C243.886 135.47 243.311 127.087 242.001 127.483C239.924 128.11 243.239 136.898 242.281 136.894C241.323 136.889 240.588 128.888 239.117 129.226C237.036 129.693 240.352 139.455 239.238 138.797C238.124 138.139 237.188 132.571 236.225 133.042C235.263 133.513 240.615 151.561 240.615 151.561Z" fill="#F09982"/>
<path d="M257.727 193.763C259.88 192.38 263.521 191.709 265.86 193.079C264.458 194.838 262.734 196.315 260.78 197.433C258.694 198.607 256.747 198.144 254.951 196.543C255.681 195.44 256.625 194.495 257.727 193.763Z" fill="#ED8062"/>
<path d="M267.656 198.322L268.173 202.236L299.893 205.83L299.506 201.124L267.656 198.322Z" fill="#F09982"/>
<path d="M299.893 206.177H299.853L268.137 202.579C268.06 202.57 267.988 202.536 267.933 202.482C267.877 202.428 267.841 202.357 267.83 202.281L267.308 198.367C267.302 198.315 267.307 198.263 267.323 198.214C267.34 198.165 267.366 198.12 267.402 198.082C267.437 198.044 267.481 198.015 267.53 197.996C267.578 197.978 267.631 197.971 267.682 197.975L299.536 200.777C299.618 200.783 299.695 200.819 299.753 200.877C299.811 200.935 299.847 201.011 299.853 201.093L300.24 205.803C300.244 205.854 300.237 205.905 300.218 205.953C300.2 206.001 300.171 206.044 300.133 206.079C300.102 206.111 300.065 206.136 300.023 206.153C299.982 206.17 299.938 206.178 299.893 206.177ZM268.485 201.916L299.51 205.434L299.18 201.431L268.057 198.696L268.485 201.916Z" fill="#F09982"/>
<path d="M288.833 134.265L267.638 121.496C266.373 119.353 267.104 109.751 268.601 107.754C272.71 102.292 274.265 96.6083 280.967 95.2385C288.69 93.6596 299.394 95.9412 302.429 103.391C303.654 106.402 308.013 124.192 291.778 129.693" fill="#0F2D52"/>
<path d="M291.64 117.24C291.668 117.313 291.71 117.38 291.764 117.436C291.819 117.492 291.884 117.536 291.956 117.566C292.028 117.596 292.106 117.611 292.184 117.61C292.262 117.609 292.339 117.592 292.411 117.56C293.672 117.013 296.475 115.488 298.311 118.61C300.147 121.732 297.794 125.019 295.922 125.948C295.383 126.22 294.14 126.878 293.953 127.447C293.342 129.195 293.979 132.166 294.568 135.96C295.48 141.317 297.302 146.479 299.955 151.223C299.955 151.223 279.011 166.136 279.117 155.546C279.26 143.68 278.284 135.128 278.15 135.088C275.922 134.198 268.895 136.062 267.157 121.692C265.548 108.376 274.594 105.481 276.961 104.921C278.975 104.436 285.619 102.061 291.64 117.24Z" fill="#F09982"/>
<path d="M282.585 159.683C281.873 159.701 281.167 159.548 280.526 159.238C279.336 158.615 278.743 157.365 278.77 155.529C278.904 144.485 278.079 136.533 277.879 135.328C277.476 135.226 277.066 135.152 276.653 135.106C273.739 134.701 268.307 133.945 266.849 121.705C265.236 108.363 274.158 105.21 276.93 104.556L277.197 104.494C278.205 104.178 279.266 104.064 280.318 104.159C281.37 104.254 282.393 104.555 283.329 105.045C286.586 106.744 289.505 110.796 292.005 117.098C292.016 117.127 292.033 117.154 292.054 117.177C292.076 117.199 292.102 117.217 292.131 117.229C292.16 117.241 292.191 117.248 292.222 117.247C292.253 117.247 292.284 117.24 292.313 117.227L292.562 117.116C293.93 116.502 296.774 115.221 298.654 118.423C299.02 119.03 299.254 119.708 299.34 120.411C299.426 121.115 299.362 121.829 299.153 122.506C298.666 124.098 297.578 125.44 296.119 126.246C295.134 126.736 294.43 127.247 294.336 127.549C293.846 128.95 294.225 131.281 294.701 134.221C294.786 134.754 294.875 135.306 294.964 135.88C296.23 144.085 300.272 150.952 300.312 151.001C300.35 151.075 300.361 151.16 300.344 151.241C300.326 151.322 300.28 151.395 300.214 151.446C299.617 151.882 288.583 159.683 282.585 159.683ZM279.67 104.836C278.877 104.85 278.089 104.967 277.326 105.183L277.05 105.25C274.421 105.868 265.962 108.874 267.504 121.634C268.917 133.34 273.81 134.021 276.733 134.43C277.259 134.48 277.778 134.587 278.28 134.75C278.463 134.821 278.685 134.91 279.086 140.856C279.3 144.076 279.532 149.24 279.465 155.533C279.465 157.107 279.911 158.117 280.851 158.615C282.727 159.594 286.573 158.588 291.992 155.711C294.579 154.309 297.09 152.771 299.514 151.103C298.739 149.716 295.379 143.396 294.238 135.982C294.149 135.408 294.06 134.857 293.975 134.327C293.48 131.276 293.084 128.87 293.641 127.3C293.864 126.669 294.929 126.028 295.784 125.606C297.069 124.884 298.027 123.696 298.458 122.288C298.637 121.701 298.69 121.083 298.613 120.475C298.537 119.866 298.332 119.281 298.012 118.757C296.448 116.088 294.171 117.12 292.807 117.734L292.549 117.849C292.435 117.898 292.312 117.923 292.188 117.923C292.064 117.923 291.941 117.898 291.827 117.849C291.711 117.802 291.606 117.731 291.518 117.641C291.43 117.552 291.361 117.446 291.315 117.329C287.063 106.66 282.598 104.836 279.67 104.836Z" fill="#F09982"/>
<path d="M297.29 120.189C297.29 120.189 293.494 116.858 293.391 123.551L297.29 120.189Z" fill="#C96254"/>
<path d="M278.926 121.923C278.333 122.164 277.825 122.574 277.466 123.102C277.107 123.631 276.912 124.253 276.908 124.892C276.903 125.53 277.088 126.156 277.44 126.689C277.792 127.223 278.294 127.64 278.883 127.889C279.472 128.138 280.122 128.206 280.751 128.087C281.379 127.967 281.958 127.663 282.413 127.215C282.869 126.767 283.182 126.194 283.311 125.569C283.441 124.944 283.382 124.294 283.141 123.702C282.982 123.309 282.747 122.951 282.449 122.648C282.15 122.346 281.795 122.105 281.404 121.939C281.012 121.774 280.592 121.688 280.166 121.685C279.741 121.682 279.32 121.763 278.926 121.923Z" fill="#ED8062"/>
<path d="M280.143 128.492C279.298 128.516 278.472 128.239 277.813 127.712C277.153 127.184 276.703 126.44 276.543 125.612C276.382 124.784 276.521 123.926 276.936 123.19C277.35 122.455 278.013 121.891 278.806 121.599C279.291 121.42 279.809 121.348 280.325 121.389C280.84 121.43 281.341 121.582 281.791 121.835C282.242 122.088 282.632 122.436 282.934 122.855C283.237 123.274 283.444 123.753 283.543 124.26C283.641 124.766 283.628 125.288 283.503 125.789C283.379 126.29 283.148 126.758 282.824 127.161C282.501 127.564 282.093 127.891 281.63 128.121C281.167 128.351 280.66 128.478 280.143 128.492ZM279.06 122.244C278.445 122.5 277.939 122.962 277.627 123.549C277.315 124.136 277.216 124.813 277.347 125.465C277.478 126.116 277.832 126.703 278.347 127.124C278.862 127.545 279.508 127.775 280.174 127.775C280.84 127.775 281.485 127.545 282.001 127.124C282.516 126.703 282.869 126.116 283.001 125.465C283.132 124.813 283.033 124.136 282.721 123.549C282.409 122.962 281.902 122.5 281.288 122.244C280.935 122.096 280.556 122.02 280.174 122.02C279.791 122.02 279.413 122.096 279.06 122.244Z" fill="#ED8062"/>
<path d="M268.757 128.412C269.305 128.048 269.728 127.526 269.971 126.915C270.214 126.305 270.264 125.635 270.115 124.995C269.967 124.355 269.626 123.776 269.139 123.334C268.652 122.893 268.041 122.61 267.389 122.524C267.389 122.524 267.531 126.349 268.757 128.412Z" fill="#ED8062"/>
<path d="M268.756 128.759H268.676C268.63 128.748 268.586 128.728 268.548 128.7C268.509 128.672 268.477 128.636 268.453 128.595C267.206 126.482 267.045 122.702 267.041 122.546C267.039 122.495 267.048 122.445 267.068 122.398C267.088 122.351 267.118 122.309 267.156 122.274C267.193 122.24 267.238 122.214 267.287 122.199C267.335 122.184 267.387 122.179 267.437 122.186C268.166 122.272 268.851 122.581 269.397 123.07C269.944 123.559 270.326 124.204 270.491 124.918C270.656 125.632 270.597 126.379 270.321 127.058C270.045 127.736 269.565 128.314 268.948 128.71C268.891 128.745 268.824 128.763 268.756 128.759ZM267.767 122.955C267.843 123.938 268.097 126.304 268.868 127.887C269.257 127.546 269.546 127.108 269.707 126.616C269.867 126.125 269.893 125.6 269.78 125.096C269.668 124.592 269.421 124.127 269.067 123.751C268.713 123.374 268.264 123.099 267.767 122.955Z" fill="#ED8062"/>
<path d="M269.826 126.05L275.33 125.726C275.33 125.726 274.109 128.443 272.5 128.261C270.891 128.079 269.826 126.05 269.826 126.05Z" fill="white"/>
<path d="M271.644 122.839L272.482 125.201L271.19 125.383C271.135 125.392 271.08 125.386 271.028 125.366C270.977 125.346 270.932 125.313 270.897 125.27C270.863 125.227 270.841 125.176 270.833 125.122C270.824 125.068 270.831 125.012 270.851 124.961L271.644 122.839Z" fill="#C96254"/>
<path d="M276.386 118.463C277.014 118.841 275.963 117.027 275.125 116.866C274.941 116.815 274.749 116.801 274.56 116.824C274.371 116.847 274.189 116.907 274.023 117.001C273.857 117.095 273.712 117.22 273.595 117.371C273.478 117.521 273.392 117.693 273.342 117.876C274.394 117.707 275.472 117.915 276.386 118.463Z" fill="black"/>
<path d="M267.037 118.828C266.466 119.273 267.259 117.347 268.062 117.071C268.413 116.924 268.809 116.921 269.163 117.064C269.517 117.206 269.8 117.482 269.951 117.832C268.892 117.811 267.86 118.164 267.037 118.828Z" fill="black"/>
<path d="M277.451 134.994C277.451 134.994 281.296 134.674 284.064 133.264C283.128 137.899 279.563 138.183 277.451 134.994Z" fill="#1C1C29"/>
<path d="M278.383 146.829C277.638 147.679 275.758 147.399 276.096 147.092C271.435 154.319 265.334 166.114 264.902 172.967C264.376 181.373 263.155 203.161 263.155 203.161C263.316 204.215 295.187 207.079 303.262 206.617C308.2 192.888 312.393 168.76 309.867 157.988C309.867 157.988 310.187 156.574 305.94 151.842C305.049 150.823 297.028 142.662 296.533 142.057C296.542 142.044 271.19 165.18 278.383 146.829Z" fill="#0191B4"/>
<path d="M310.071 158.94C312.161 170.125 308.066 193.279 303.271 206.617C297.634 206.941 280.446 205.647 270.495 204.473C288.159 193.563 302.446 178.211 310.071 158.94Z" fill="#18334D"/>
<path d="M301.172 206.821C294.309 206.821 279.782 205.723 270.477 204.629L270.031 204.575L270.406 204.344C289.042 192.834 302.705 177.112 309.92 158.882L310.116 158.388L310.214 158.913C311.181 164.086 310.891 172.282 309.398 181.996C308.062 190.766 305.807 199.995 303.405 206.67L303.374 206.764H303.271C302.701 206.804 301.992 206.821 301.172 206.821ZM270.949 204.375C281.315 205.572 297.687 206.755 303.16 206.47C309.1 189.899 311.493 168.729 310.013 159.5C302.772 177.459 289.283 192.954 270.949 204.375Z" fill="#18334D"/>
<path d="M273.075 122.582C273.173 123.32 273.485 123.889 273.775 123.849C274.064 123.809 274.22 123.186 274.122 122.448C274.024 121.71 273.717 121.141 273.427 121.176C273.137 121.212 272.981 121.843 273.075 122.582Z" fill="black"/>
<path d="M269.096 122.604C269.189 123.342 269.501 123.911 269.791 123.871C270.081 123.831 270.237 123.204 270.143 122.466C270.049 121.728 269.733 121.163 269.443 121.198C269.154 121.234 268.998 121.866 269.096 122.604Z" fill="black"/>
<path d="M288.779 120.843C283.066 117.881 271.257 107.522 271.257 107.522L266.845 115.973C266.845 115.973 262.977 103.875 270.049 102.595C270.049 102.595 270.633 97.5956 276.386 96.4971C278.063 96.182 279.792 96.2746 281.425 96.7669C283.059 97.2593 284.549 98.1369 285.771 99.3257C285.771 99.3257 294.238 106.344 292.482 117.116C292.482 117.258 292.438 117.396 292.411 117.538C292.411 117.551 293.271 123.173 288.779 120.843Z" fill="#0F2D52"/>
<path d="M295.16 128.479C295.595 129.063 295.866 129.752 295.945 130.475C296.023 131.199 295.906 131.93 295.606 132.593C295.254 133.344 294.661 134.003 293.757 133.754C293.066 133.562 292.353 132.989 292.308 132.228C292.287 132.027 292.324 131.824 292.414 131.643C292.504 131.462 292.643 131.31 292.816 131.205C292.981 131.119 293.169 131.091 293.351 131.124C293.534 131.157 293.7 131.25 293.823 131.387C294.015 131.61 294.336 131.29 294.144 131.067C294.004 130.922 293.832 130.811 293.642 130.744C293.451 130.676 293.248 130.653 293.047 130.676C292.847 130.7 292.654 130.77 292.485 130.88C292.316 130.99 292.175 131.138 292.072 131.312C291.866 131.716 291.815 132.18 291.926 132.62C292.038 133.059 292.305 133.443 292.678 133.7C293.44 134.296 294.523 134.514 295.294 133.82C295.961 133.14 296.354 132.24 296.399 131.29C296.492 130.205 296.186 129.124 295.539 128.248C295.365 128.021 294.969 128.248 295.147 128.479H295.16Z" fill="#0F2D52"/>
<path d="M276.123 208.556C276.123 208.556 303.824 210.949 315.936 199.287C318.797 196.539 319.817 193.506 318.828 189.65C315.668 177.37 309.06 153.594 307.736 153.096C299.171 138.966 291.52 145.122 291.858 149.68C292.999 164.828 295.187 163.494 299.514 186.381L269.844 198.505C268.538 198.331 259.198 196.81 260.544 198.749C261.889 200.688 263.917 200.132 264.465 200.715C265.013 201.298 250.713 204.042 251.341 205.558C252.233 207.707 260.994 204.153 260.361 205.67C259.728 207.186 251.448 208.729 252.001 209.979C252.865 211.967 261.226 207.658 261.332 208.609C261.439 209.561 253.565 211.22 254.069 212.639C254.777 214.645 264.091 210.228 263.578 211.407C263.066 212.585 257.616 214.164 258.2 215.063C258.783 215.961 276.123 208.556 276.123 208.556Z" fill="#F09982"/>
<path d="M318.106 186.865C318.36 187.844 318.605 188.778 318.828 189.649C319.817 193.488 318.797 196.539 315.936 199.287C315.083 200.101 314.167 200.844 313.195 201.511C312.094 195.467 312.54 189.04 318.106 186.865Z" fill="#ED8062"/>
<path d="M292.411 117.551L269.363 102.599C269.363 102.599 269.363 102.51 269.403 102.354C270.504 96.7283 277.696 94.936 281.386 99.3301L295.401 116.048C295.401 116.048 291.93 116.333 292.411 117.551Z" fill="#35BBCA"/>
<path d="M167.758 199.181L189.238 220.613C189.99 221.365 190.502 222.323 190.709 223.366C190.916 224.408 190.809 225.488 190.401 226.47C189.994 227.452 189.304 228.291 188.419 228.881C187.533 229.472 186.493 229.788 185.428 229.788H153.449L167.758 199.181Z" fill="#F8D90F"/>
<path d="M162.361 197.566L183.836 220.128C187.228 223.686 184.826 229.788 180.026 229.788H148.057L162.361 197.566Z" fill="#0191B4"/>
<path d="M154.813 78.3513L133.338 99.7882C132.586 100.54 132.074 101.498 131.867 102.541C131.659 103.583 131.766 104.663 132.174 105.645C132.582 106.627 133.272 107.466 134.157 108.057C135.042 108.647 136.083 108.963 137.148 108.963H169.118L154.813 78.3513Z" fill="white"/>
<path d="M167.197 158.371C169.429 162.241 170.257 166.762 169.541 171.17C163.837 176.627 158.021 181.907 158.021 181.907C158.021 181.907 101.346 251.02 89.465 229.926C81.916 216.521 87.9053 200.728 88.0969 198.011C90.2137 194.524 91.6887 192.118 91.8892 191.495C91.8892 191.495 97.7181 167.866 96.2966 157.005C96.1361 155.813 98.0256 139.429 98.3242 139.518C118.863 145.771 122.206 165.758 107.179 195.276C106.733 196.192 147.103 165.429 147.103 165.429C147.745 163.334 151.916 148.132 153.926 151.508C155.936 154.884 153.694 157.583 154.193 158.815C154.692 160.047 168.792 140.3 170.682 142.297C173.324 145.13 161.845 155.942 164.585 156.04C164.928 156.04 165.196 157.428 165.677 157.125C165.668 157.134 167.197 158.375 167.197 158.371Z" fill="#F09982"/>
<path d="M117.175 221.916L116.306 228.441L63.3867 234.44L64.0284 226.586L117.175 221.916Z" fill="#F09982"/>
<path d="M63.387 234.787C63.2958 234.787 63.208 234.752 63.1419 234.689C63.105 234.653 63.0763 234.609 63.0578 234.561C63.0394 234.513 63.0316 234.461 63.0349 234.409L63.6811 226.555C63.6873 226.473 63.7226 226.396 63.7806 226.338C63.8387 226.281 63.9157 226.245 63.9975 226.239L117.144 221.565C117.196 221.561 117.248 221.568 117.296 221.587C117.345 221.605 117.388 221.634 117.424 221.672C117.462 221.709 117.49 221.754 117.507 221.805C117.523 221.855 117.527 221.909 117.518 221.961L116.649 228.485C116.64 228.562 116.605 228.634 116.55 228.688C116.495 228.743 116.423 228.778 116.346 228.788L63.4316 234.787H63.387ZM64.3496 226.906L63.7658 234.022L116.016 228.125L116.792 222.299L64.3496 226.906Z" fill="#F09982"/>
<path d="M81.8361 115.034L117.201 93.7307C119.309 90.1504 118.093 74.1306 115.593 70.7994C108.739 61.6865 106.145 52.2045 94.9599 49.9185C82.0767 47.2856 64.2113 51.0926 59.1533 63.5189C57.1079 68.5401 49.8352 98.2093 76.9252 107.402" fill="#0F2D52"/>
<path d="M77.1529 86.6281C77.1055 86.7486 77.0343 86.8584 76.9436 86.9509C76.8528 87.0434 76.7443 87.1167 76.6246 87.1665C76.5048 87.2163 76.3762 87.2416 76.2465 87.2408C76.1168 87.2399 75.9886 87.2131 75.8695 87.1618C73.7616 86.2456 69.0869 83.7016 66.021 88.9141C62.955 94.1265 66.8855 99.5881 70.0317 101.158C70.923 101.603 72.9818 102.71 73.316 103.658C74.3365 106.575 73.2714 111.53 72.2955 117.858C70.1163 131.832 63.2759 143.347 63.2759 143.347C63.2759 143.347 98.2625 168.226 98.0352 150.556C97.7946 130.76 99.4256 116.489 99.6484 116.4C103.329 114.936 115.094 118.032 117.991 94.0465C120.664 71.8313 105.58 67.0013 101.618 66.0718C98.2847 65.2668 87.2019 61.2997 77.1529 86.6281Z" fill="#F09982"/>
<path d="M92.2281 157.223C82.3395 157.223 63.9482 144.237 63.0748 143.614C63.0082 143.563 62.9617 143.491 62.9438 143.41C62.9258 143.328 62.9375 143.243 62.9767 143.169C63.0436 143.053 69.8083 131.566 71.9251 117.818C72.0721 116.862 72.2236 115.937 72.3707 115.048C73.1728 110.093 73.8056 106.179 72.9678 103.787C72.7673 103.222 71.5775 102.337 69.8484 101.483C67.4668 100.17 65.6934 97.9802 64.9064 95.3809C64.5663 94.2818 64.4624 93.1235 64.6014 91.9817C64.7404 90.8398 65.1191 89.74 65.7129 88.7541C68.7477 83.5951 73.3645 85.672 75.5837 86.6683L76.0026 86.8551C76.0785 86.8881 76.1604 86.9052 76.2432 86.9052C76.326 86.9052 76.408 86.8881 76.4839 86.8551C76.5615 86.8233 76.6319 86.7761 76.6909 86.7165C76.7498 86.6569 76.7962 86.5861 76.827 86.5082C86.573 61.9358 97.2459 64.6088 101.261 65.605L101.707 65.7117C106.283 66.788 121.012 72.0183 118.347 94.0733C115.9 114.314 106.956 115.559 102.148 116.226C101.394 116.312 100.649 116.46 99.9197 116.671C99.6078 118.174 98.1372 131.486 98.3734 150.556C98.409 153.532 97.4821 155.546 95.5659 156.538C94.5238 157.028 93.3794 157.263 92.2281 157.223ZM63.7387 143.227C66.3546 145.046 87.8966 159.745 95.2629 155.898C96.9117 155.035 97.7317 153.229 97.7005 150.561C97.5712 140.043 97.9723 131.437 98.3332 126.064C98.5115 123.396 98.7254 120.892 98.9349 118.948C99.2335 116.191 99.3092 116.16 99.532 116.071C100.353 115.807 101.2 115.632 102.059 115.55C107.001 114.861 115.276 113.709 117.656 94.0022C118.311 88.5718 119.086 70.5328 101.546 66.4278L101.101 66.3166C97.2415 65.3515 87.0053 62.7853 77.4821 86.775C77.4164 86.9389 77.3187 87.0882 77.1948 87.2141C77.0709 87.3401 76.9232 87.4403 76.7602 87.5089C76.5982 87.5781 76.4239 87.6138 76.2477 87.6138C76.0715 87.6138 75.8972 87.5781 75.7352 87.5089L75.2896 87.3176C72.95 86.2636 69.0284 84.5024 66.3101 89.1188C65.7653 90.0233 65.4178 91.0323 65.2904 92.0799C65.1629 93.1276 65.2583 94.1902 65.5703 95.1985C66.3171 97.605 67.9576 99.6353 70.1559 100.874C71.5418 101.563 73.2753 102.59 73.614 103.573C74.5053 106.13 73.8635 110.12 73.048 115.172C72.9054 116.062 72.7539 116.982 72.6024 117.939C70.6594 130.596 64.7904 141.372 63.7387 143.227Z" fill="#F09982"/>
<path d="M67.7271 91.5424C67.7271 91.5424 74.0595 85.9875 74.2288 97.1552L67.7271 91.5424Z" fill="#C96254"/>
<path d="M113.548 101.331L104.372 100.789C104.372 100.789 106.404 105.321 109.087 105.014C111.77 104.707 113.548 101.331 113.548 101.331Z" fill="white"/>
<path d="M110.517 95.9679L109.118 99.9083L111.275 100.215C111.365 100.228 111.458 100.217 111.543 100.183C111.628 100.149 111.703 100.094 111.76 100.023C111.818 99.9517 111.856 99.8668 111.871 99.7766C111.885 99.6864 111.877 99.5939 111.845 99.5081L110.517 95.9679Z" fill="#C96254"/>
<path d="M102.607 88.665C101.555 89.2966 103.316 86.2723 104.71 85.9965C106.105 85.7208 107.42 86.4813 107.656 87.6821C105.91 87.412 104.124 87.7597 102.607 88.665Z" fill="black"/>
<path d="M118.204 89.2745C119.157 90.0439 117.834 86.8061 116.488 86.3436C115.142 85.881 113.734 86.4547 113.337 87.6111C115.104 87.5822 116.826 88.1706 118.204 89.2745Z" fill="black"/>
<path d="M100.829 116.248C100.829 116.248 94.4117 115.715 89.7905 113.366C91.328 121.109 97.2994 121.554 100.829 116.248Z" fill="#18334D"/>
<path d="M95.4098 119.94C95.1106 119.941 94.812 119.913 94.5186 119.855C92.13 119.384 90.3474 117.031 89.6166 113.393L89.5542 113.086L89.8394 113.228C94.3804 115.537 100.753 116.093 100.82 116.097H101.078L100.936 116.31C99.4205 118.645 97.4018 119.94 95.4098 119.94ZM90.0043 113.642C90.7396 116.973 92.4018 119.121 94.5899 119.553C96.6665 119.962 98.8813 118.779 100.557 116.377C99.3314 116.248 94.0462 115.603 90.0043 113.642Z" fill="#18334D"/>
<path d="M99.2691 135.995C100.517 137.414 102.995 137.618 102.433 137.107C110.209 149.164 121.043 168.173 121.765 179.607C122.656 193.635 124.683 229.984 124.683 229.984C124.412 231.763 71.2387 236.526 57.7494 235.766C49.5097 212.857 42.5133 172.611 46.7289 154.621C46.7289 154.621 46.1942 152.264 53.2797 144.365C54.8038 142.671 68.1728 129.053 68.9705 128.016C68.9705 128.007 102.469 154.808 99.2691 135.995Z" fill="white"/>
<path d="M108.128 95.5409C107.968 96.7729 107.446 97.7202 106.965 97.6579C106.484 97.5956 106.221 96.546 106.377 95.3141C106.533 94.0821 107.059 93.1348 107.545 93.1971C108.03 93.2593 108.289 94.309 108.128 95.5409Z" fill="black"/>
<path d="M114.773 95.5763C114.612 96.8083 114.091 97.7556 113.609 97.6933C113.128 97.631 112.861 96.5814 113.021 95.3495C113.182 94.1175 113.703 93.1702 114.184 93.2325C114.666 93.2948 114.933 94.3444 114.773 95.5763Z" fill="black"/>
<path d="M81.9298 92.6456C91.4574 87.7 111.163 70.4082 111.163 70.4082L118.525 84.529C118.525 84.529 124.978 64.3463 113.178 62.2115C113.178 62.2115 112.197 53.868 102.598 52.0401C92.9993 50.2122 86.9387 56.7589 86.9387 56.7589C86.9387 56.7589 72.8433 68.4647 75.7399 86.4592C75.78 86.6905 75.8202 86.9262 75.8647 87.1619C75.8692 87.1619 74.4342 96.5283 81.9298 92.6456Z" fill="#0F2D52"/>
<path d="M144.398 233.987C142.919 237.571 128.293 231.643 129.349 234.173C130.405 236.704 144.207 239.279 143.298 241.365C141.849 244.683 127.901 237.491 127.7 239.079C127.5 240.667 140.659 243.429 139.822 245.795C138.641 249.144 123.102 241.792 123.953 243.744C124.804 245.697 133.899 248.343 132.928 249.842C131.956 251.341 103.044 238.968 103.044 238.968C103.044 238.968 100.962 239.146 97.4865 239.244C95.9491 239.288 94.1354 239.315 92.1077 239.301C77.1701 239.212 50.6371 237.002 36.6131 223.508C31.8448 218.919 30.138 213.826 31.7869 207.422C37.0632 186.932 48.0881 147.265 50.2985 146.438C64.5899 122.866 77.3573 133.127 76.7869 140.732C74.8885 166.011 71.2343 163.783 64.0195 201.969C64.0195 201.969 85.9134 210.926 100.561 216.917L113.485 222.201C115.664 221.907 131.248 219.372 129.006 222.606C126.765 225.839 123.378 224.918 122.464 225.888C121.551 226.857 145.428 231.456 144.398 233.987Z" fill="#F09982"/>
<path d="M98.8059 133.611L104.372 138.455L105.856 153.225L98.0527 142.266L98.8059 133.611Z" fill="white"/>
<path d="M103.204 104.907C99.7104 104.907 96.8628 99.6504 96.8628 93.1927C96.8628 86.7349 99.7104 81.478 103.204 81.478C106.698 81.478 109.545 86.7349 109.545 93.1927C109.545 99.6504 106.702 104.907 103.204 104.907ZM103.204 81.9227C99.9555 81.9227 97.3084 86.9795 97.3084 93.1927C97.3084 99.4058 99.9555 104.463 103.204 104.463C106.453 104.463 109.1 99.4058 109.1 93.1927C109.1 86.9795 106.457 81.9227 103.204 81.9227Z" fill="white"/>
<path d="M116.257 103.528C116.157 103.535 116.058 103.535 115.958 103.528C114.586 103.364 113.44 102.114 112.736 100.015C112.018 97.6155 111.828 95.0895 112.179 92.6099C112.866 86.9216 115.686 82.5675 118.449 82.8966C121.212 83.2257 122.906 88.1313 122.228 93.8196C121.569 99.2856 118.931 103.528 116.257 103.528ZM118.137 83.3058C115.695 83.3058 113.235 87.3885 112.62 92.6455C112.28 95.0591 112.462 97.5176 113.155 99.8548C113.806 101.785 114.817 102.928 116.012 103.07C118.534 103.373 121.128 99.1922 121.805 93.7307C122.482 88.2692 120.94 83.6082 118.414 83.3058C118.322 83.2982 118.229 83.2982 118.137 83.3058Z" fill="white"/>
<path d="M75.8498 86.2663L75.7354 86.6962L97.076 92.3552L97.1904 91.9254L75.8498 86.2663Z" fill="#F2F2F5"/>
<path d="M68.9706 128.012L59.0508 135.693L93.3823 164.486L96.3413 142.217L68.9706 128.012Z" fill="white"/>
<path d="M183.315 206.581C186.119 206.581 188.391 204.313 188.391 201.516C188.391 198.718 186.119 196.45 183.315 196.45C180.512 196.45 178.24 198.718 178.24 201.516C178.24 204.313 180.512 206.581 183.315 206.581Z" fill="#F8D90F"/>
<path d="M160.749 111.12C174.696 111.12 186.003 99.8361 186.003 85.9164C186.003 71.9967 174.696 60.7125 160.749 60.7125C146.801 60.7125 135.495 71.9967 135.495 85.9164C135.495 99.8361 146.801 111.12 160.749 111.12Z" fill="white"/>
<path d="M174.006 75.5006H149.523C148.908 75.5006 148.409 75.9984 148.409 76.6125C148.409 77.2265 148.908 77.7243 149.523 77.7243H174.006C174.622 77.7243 175.12 77.2265 175.12 76.6125C175.12 75.9984 174.622 75.5006 174.006 75.5006Z" fill="#FE7A15"/>
<path d="M174.006 80.971H149.523C148.908 80.971 148.409 81.4688 148.409 82.0829C148.409 82.697 148.908 83.1948 149.523 83.1948H174.006C174.622 83.1948 175.12 82.697 175.12 82.0829C175.12 81.4688 174.622 80.971 174.006 80.971Z" fill="#FE7A15"/>
<path d="M174.006 86.4413H149.523C148.908 86.4413 148.409 86.9391 148.409 87.5532C148.409 88.1673 148.908 88.6651 149.523 88.6651H174.006C174.622 88.6651 175.12 88.1673 175.12 87.5532C175.12 86.9391 174.622 86.4413 174.006 86.4413Z" fill="#FE7A15"/>
<path d="M165.094 91.9117H149.523C148.908 91.9117 148.409 92.4095 148.409 93.0236C148.409 93.6377 148.908 94.1355 149.523 94.1355H165.094C165.709 94.1355 166.208 93.6377 166.208 93.0236C166.208 92.4095 165.709 91.9117 165.094 91.9117Z" fill="#FE7A15"/>
<path d="M55.076 280.485H36.4886C34.9381 280.485 33.6812 281.739 33.6812 283.287V287.908C33.6812 289.455 34.9381 290.71 36.4886 290.71H55.076C56.6265 290.71 57.8835 289.455 57.8835 287.908V283.287C57.8835 281.739 56.6265 280.485 55.076 280.485Z" fill="#F2F2F5"/>
<path d="M81.6131 280.485H63.0257C61.4752 280.485 60.2183 281.739 60.2183 283.287V287.908C60.2183 289.455 61.4752 290.71 63.0257 290.71H81.6131C83.1636 290.71 84.4206 289.455 84.4206 287.908V283.287C84.4206 281.739 83.1636 280.485 81.6131 280.485Z" fill="#F2F2F5"/>
<path d="M67.5311 268.295H48.9437C47.3932 268.295 46.1362 269.549 46.1362 271.096V275.717C46.1362 277.265 47.3932 278.519 48.9437 278.519H67.5311C69.0816 278.519 70.3385 277.265 70.3385 275.717V271.096C70.3385 269.549 69.0816 268.295 67.5311 268.295Z" fill="#F2F2F5"/>
<path d="M200.811 8.966H195.018V253.929H200.811V8.966Z" fill="white"/>
<path d="M212.83 131.872L227.714 146.727C228.236 147.248 228.591 147.911 228.735 148.633C228.879 149.356 228.806 150.104 228.523 150.785C228.241 151.465 227.762 152.046 227.149 152.455C226.535 152.865 225.814 153.083 225.076 153.082H202.915L212.83 131.872Z" fill="#FE7A15"/>
<path d="M208.717 154.581C218.382 154.581 226.217 146.762 226.217 137.116C226.217 127.47 218.382 119.651 208.717 119.651C199.052 119.651 191.217 127.47 191.217 137.116C191.217 146.762 199.052 154.581 208.717 154.581Z" fill="#FE7A15"/>
<path d="M217.268 130H198.761V131.334H217.268V130Z" fill="white"/>
<path d="M217.268 133.789H198.761V135.123H217.268V133.789Z" fill="white"/>
<path d="M217.268 137.583H198.761V138.917H217.268V137.583Z" fill="white"/>
<path d="M217.268 141.372H204.938V142.706H217.268V141.372Z" fill="white"/>
<path d="M200.811 10.9987L259.911 69.9768V83.9019L201.007 25.115L200.811 10.9987Z" fill="white"/>
<path d="M200.811 27.6768L259.911 86.6594V91.6895L201.007 32.9026L200.811 27.6768Z" fill="white"/>
<path d="M113.521 222.219L88.5339 211.989L87.616 211.616L87.5045 211.571V211.127L86.6133 158.74C86.4846 151.22 83.6083 144.006 78.525 138.455L68.9751 128.021L91.1097 139.309C91.7881 139.655 92.5366 139.842 93.2984 139.855C94.0601 139.869 94.8149 139.709 95.5052 139.387C96.1954 139.065 96.803 138.59 97.2816 137.999C97.7601 137.407 98.097 136.714 98.2666 135.973L98.8102 133.625L100.682 137.881C103.128 143.435 104.741 149.318 105.468 155.342L113.521 222.219Z" fill="#35BBCA"/>
<path d="M103.093 137.343L111.15 144.392C112.686 145.746 113.774 147.535 114.269 149.52L119.136 168.729" fill="white"/>
<path d="M119.135 183.819L136.631 171.299C136.631 171.299 143.694 186.39 153.458 190.926L122.13 219.675L119.135 183.819Z" fill="white"/>
<path d="M78.0304 135.759C81.8567 139.037 84.9032 143.124 86.9483 147.724C88.9934 152.324 89.9857 157.32 89.853 162.351L88.5161 212.003L88.4314 215.116L87.5981 211.607L87.4778 211.104L86.5865 158.717C86.4597 151.209 83.5935 144.005 78.525 138.455L68.9751 128.021L78.0304 135.759Z" fill="#0F2D52"/>
<path d="M69.7237 176.774L64.0196 201.987L100.562 216.935L89.7728 245.439L32.968 231.496C28.9933 230.524 25.4881 228.187 23.0666 224.894C20.6451 221.602 19.4617 217.564 19.7238 213.488C20.3655 203.615 22.09 190.806 26.5419 181.911L42.041 144.899C42.9963 142.617 44.7188 140.74 46.9118 139.589L68.9662 128.025L85.0714 162.716" fill="white"/>
<path d="M43.8237 142.044C49.285 146.133 53.554 151.603 56.19 157.889C58.826 164.175 59.7337 171.049 58.8193 177.802L56.1054 197.846C55.9667 198.874 56.1953 199.917 56.7513 200.792C57.3072 201.667 58.1547 202.319 59.1446 202.632L87.4957 211.589" stroke="#0F2D52" stroke-width="1.21795" stroke-miterlimit="10"/>
<path d="M100.584 216.935L97.4867 239.261C95.9493 239.306 94.1355 239.332 92.1079 239.319L100.584 216.935Z" fill="#0F2D52"/>
<path d="M64.1355 235.459C65.4079 235.459 66.4394 234.429 66.4394 233.16C66.4394 231.89 65.4079 230.86 64.1355 230.86C62.863 230.86 61.8315 231.89 61.8315 233.16C61.8315 234.429 62.863 235.459 64.1355 235.459Z" fill="#0F2D52"/>
<path d="M70.343 237.091C71.6154 237.091 72.6469 236.062 72.6469 234.792C72.6469 233.522 71.6154 232.492 70.343 232.492C69.0706 232.492 68.0391 233.522 68.0391 234.792C68.0391 236.062 69.0706 237.091 70.343 237.091Z" fill="#0F2D52"/>
<path d="M76.2302 239.039C77.5026 239.039 78.5341 238.009 78.5341 236.74C78.5341 235.47 77.5026 234.44 76.2302 234.44C74.9578 234.44 73.9263 235.47 73.9263 236.74C73.9263 238.009 74.9578 239.039 76.2302 239.039Z" fill="#0F2D52"/>
<path d="M121.898 181.826L127.054 215.138L124.002 217.936L121.898 181.826Z" fill="#0F2D52"/>
<path d="M137.406 172.802C137.406 172.802 148.222 185.989 153.962 186.723L151.341 189.734C151.341 189.734 144.162 185.331 137.406 172.802Z" fill="#0F2D52"/>
<path d="M163.939 156.876C163.556 157.588 163.124 158.264 162.696 158.94C162.482 159.269 162.25 159.611 162.045 159.931C161.851 160.239 161.688 160.565 161.56 160.905C161.317 161.569 161.212 162.276 161.251 162.981C161.29 163.687 161.472 164.377 161.787 165.01C161.954 165.332 162.147 165.64 162.362 165.931L163.044 166.914C163.489 167.572 163.935 168.248 164.349 168.915C165.217 170.263 166.01 171.657 166.725 173.092C165.586 171.966 164.51 170.778 163.503 169.534C162.99 168.92 162.5 168.293 162.014 167.661L161.292 166.709C161.027 166.366 160.793 166 160.593 165.615C160.188 164.821 159.978 163.942 159.978 163.051C159.978 162.16 160.188 161.282 160.593 160.487C160.792 160.102 161.037 159.742 161.323 159.416C161.609 159.095 161.881 158.833 162.166 158.526C162.758 157.97 163.324 157.405 163.939 156.876Z" fill="#ED8062"/>
<path d="M162.545 177.762C162.545 177.762 156.809 178.042 151.957 171.735C151.957 171.735 155.049 176.298 157.928 179.051C158.354 179.461 158.921 179.692 159.513 179.698C160.104 179.704 160.676 179.484 161.11 179.082L162.545 177.762Z" fill="#ED8062"/>
<path d="M203.65 339.659H198.338C197.09 339.659 196.079 340.668 196.079 341.914V356.252C196.079 357.498 197.09 358.507 198.338 358.507H203.65C204.898 358.507 205.909 357.498 205.909 356.252V341.914C205.909 340.668 204.898 339.659 203.65 339.659Z" fill="#35BBCA"/>
<path d="M225.023 339.659H220.477C219.018 339.659 217.834 340.839 217.834 342.296V355.87C217.834 357.326 219.018 358.507 220.477 358.507H225.023C226.482 358.507 227.665 357.326 227.665 355.87V342.296C227.665 340.839 226.482 339.659 225.023 339.659Z" fill="#35BBCA"/>
<path d="M227.665 345.957H202.736V352.21H227.665V345.957Z" fill="#35BBCA"/>
<path d="M170.749 347.655H165.437C164.189 347.655 163.177 348.665 163.177 349.91V364.249C163.177 365.494 164.189 366.504 165.437 366.504H170.749C171.996 366.504 173.008 365.494 173.008 364.249V349.91C173.008 348.665 171.996 347.655 170.749 347.655Z" fill="#35BBCA"/>
<path d="M192.121 347.655H187.576C186.116 347.655 184.933 348.836 184.933 350.293V363.867C184.933 365.323 186.116 366.504 187.576 366.504H192.121C193.581 366.504 194.764 365.323 194.764 363.867V350.293C194.764 348.836 193.581 347.655 192.121 347.655Z" fill="#35BBCA"/>
<path d="M194.764 353.957H169.835V360.211H194.764V353.957Z" fill="#35BBCA"/>
<path d="M173.008 353.957V360.206H174.483L173.008 353.957Z" fill="#0191B4"/>
<path d="M205.909 345.957V352.21H207.388L205.909 345.957Z" fill="#0191B4"/>
<path d="M339.345 366.282C346.832 366.282 352.901 360.224 352.901 352.752C352.901 345.28 346.832 339.223 339.345 339.223C331.858 339.223 325.789 345.28 325.789 352.752C325.789 360.224 331.858 366.282 339.345 366.282Z" fill="#FE7A15"/>
<path d="M335.209 333.904H343.48C344.498 333.904 345.474 334.307 346.193 335.025C346.913 335.744 347.317 336.718 347.317 337.733V350.978H331.377V337.729C331.378 336.715 331.782 335.742 332.501 335.025C333.219 334.308 334.193 333.905 335.209 333.904Z" stroke="#FE7A15" stroke-width="3.65385" stroke-miterlimit="10"/>
<path d="M74.2023 100.402C76.3853 100.402 78.1551 98.6357 78.1551 96.457C78.1551 94.2783 76.3853 92.5121 74.2023 92.5121C72.0192 92.5121 70.2495 94.2783 70.2495 96.457C70.2495 98.6357 72.0192 100.402 74.2023 100.402Z" fill="white"/>
<path d="M74.2021 97.3422V100.478C74.2021 100.937 74.2929 101.392 74.4692 101.816C74.6455 102.241 74.9039 102.626 75.2296 102.951C75.5554 103.276 75.942 103.533 76.3675 103.709C76.793 103.884 77.2489 103.974 77.7093 103.973H97.3171" stroke="white" stroke-width="1.21795" stroke-miterlimit="10"/>
<path d="M95.5396 105.953C96.6324 105.953 97.5183 105.068 97.5183 103.978C97.5183 102.887 96.6324 102.003 95.5396 102.003C94.4469 102.003 93.561 102.887 93.561 103.978C93.561 105.068 94.4469 105.953 95.5396 105.953Z" fill="white"/>
<path d="M112.005 68.0776C112.005 68.0776 103.092 86.8504 83.6138 91.6893" stroke="#0F2D52" stroke-width="1.21795" stroke-miterlimit="10"/>
<defs>
<linearGradient id="paint0_linear_364_26094" x1="118.378" y1="365.201" x2="380" y2="365.201" gradientUnits="userSpaceOnUse">
<stop stop-color="#D5DD4C"/>
<stop offset="1" stop-color="#D5DD4C"/>
</linearGradient>
<linearGradient id="paint1_linear_364_26094" x1="116342" y1="38820.8" x2="127319" y2="38820.8" gradientUnits="userSpaceOnUse">
<stop stop-color="#D5DD4C"/>
<stop offset="1" stop-color="#D5DD4C"/>
</linearGradient>
<radialGradient id="paint2_radial_364_26094" cx="0" cy="0" r="1" gradientUnits="userSpaceOnUse" gradientTransform="translate(41.4084 337.129) rotate(-90) scale(2.22502 8.91764)">
<stop stop-color="#565656"/>
<stop offset="0.11" stop-color="#464646"/>
<stop offset="0.34" stop-color="#272727"/>
<stop offset="0.57" stop-color="#121212"/>
<stop offset="0.8" stop-color="#040404"/>
<stop offset="1"/>
</radialGradient>
<radialGradient id="paint3_radial_364_26094" cx="0" cy="0" r="1" gradientUnits="userSpaceOnUse" gradientTransform="translate(7787.15 58941.1) rotate(-90) scale(87.842 88.8198)">
<stop stop-color="#565656"/>
<stop offset="0.11" stop-color="#464646"/>
<stop offset="0.34" stop-color="#272727"/>
<stop offset="0.57" stop-color="#121212"/>
<stop offset="0.8" stop-color="#040404"/>
<stop offset="1"/>
</radialGradient>
<radialGradient id="paint4_radial_364_26094" cx="0" cy="0" r="1" gradientUnits="userSpaceOnUse" gradientTransform="translate(32.7127 336.964) rotate(-90) scale(1.5278 6.12335)">
<stop stop-color="#7B7B7B"/>
<stop offset="0.06" stop-color="#6D6D6D"/>
<stop offset="0.26" stop-color="#464646"/>
<stop offset="0.46" stop-color="#272727"/>
<stop offset="0.65" stop-color="#121212"/>
<stop offset="0.83" stop-color="#040404"/>
<stop offset="1"/>
</radialGradient>
<radialGradient id="paint5_radial_364_26094" cx="0" cy="0" r="1" gradientUnits="userSpaceOnUse" gradientTransform="translate(32.7127 336.964) rotate(-90) scale(1.5278 6.12335)">
<stop stop-color="#7B7B7B"/>
<stop offset="0.06" stop-color="#6D6D6D"/>
<stop offset="0.26" stop-color="#464646"/>
<stop offset="0.46" stop-color="#272727"/>
<stop offset="0.65" stop-color="#121212"/>
<stop offset="0.83" stop-color="#040404"/>
<stop offset="1"/>
</radialGradient>
<radialGradient id="paint6_radial_364_26094" cx="0" cy="0" r="1" gradientUnits="userSpaceOnUse" gradientTransform="translate(6064.47 38351.1) rotate(-90) scale(41.3473 43.1604)">
<stop stop-color="#7B7B7B"/>
<stop offset="0.06" stop-color="#6D6D6D"/>
<stop offset="0.26" stop-color="#464646"/>
<stop offset="0.46" stop-color="#272727"/>
<stop offset="0.65" stop-color="#121212"/>
<stop offset="0.83" stop-color="#040404"/>
<stop offset="1"/>
</radialGradient>
<radialGradient id="paint7_radial_364_26094" cx="0" cy="0" r="1" gradientUnits="userSpaceOnUse" gradientTransform="translate(39.7251 413.471) scale(27.3366 0.609675)">
<stop stop-color="#373737"/>
<stop offset="0.23" stop-color="#676767"/>
<stop offset="0.76" stop-color="#D4D4D4"/>
<stop offset="1" stop-color="white"/>
</radialGradient>
</defs>
</svg>
